<?xml version="1.0" encoding="UTF-8" standalone="no"?>
<!DOCTYPE svg PUBLIC "-//W3C//DTD SVG 1.1//EN"
 "http://www.w3.org/Graphics/SVG/1.1/DTD/svg11.dtd">
<!-- Generated by graphviz version 2.43.0 (0)
 -->
<!-- Title: %3 Pages: 1 -->
<svg width="448pt" height="118pt"
 viewBox="0.00 0.00 448.00 118.00" xmlns="http://www.w3.org/2000/svg" xmlns:xlink="http://www.w3.org/1999/xlink">
<g id="graph0" class="graph" transform="scale(1 1) rotate(0) translate(4 114)">
<title>%3</title>
<polygon fill="white" stroke="transparent" points="-4,4 -4,-114 444,-114 444,4 -4,4"/>
<!-- Pointers: -->
<g id="node1" class="node">
<title>Pointers:</title>
<text text-anchor="middle" x="40" y="-87.8" font-family="Times,serif" font-size="14.00">Pointers:</text>
</g>
<!-- Values: -->
<g id="node2" class="node">
<title>Values:</title>
<text text-anchor="middle" x="40" y="-14.8" font-family="Times,serif" font-size="14.00">Values:</text>
</g>
<!-- Pointers:&#45;&gt;Values: -->
<g id="edge1" class="edge">
<title>Pointers:&#45;&gt;Values:</title>
<path fill="none" stroke="white" d="M40,-73.31C40,-65.29 40,-55.55 40,-46.57"/>
<polygon fill="white" stroke="white" points="43.5,-46.53 40,-36.53 36.5,-46.53 43.5,-46.53"/>
</g>
<!-- pointers -->
<g id="node3" class="node">
<title>pointers</title>
<polygon fill="none" stroke="white" points="98,-73.5 98,-109.5 440,-109.5 440,-73.5 98,-73.5"/>
<text text-anchor="middle" x="269" y="-87.8" font-family="Times,serif" font-size="14.00">A</text>
</g>
<!-- values -->
<g id="node4" class="node">
<title>values</title>
<polygon fill="red" stroke="transparent" points="237,-3.5 237,-32.5 301,-32.5 301,-3.5 237,-3.5"/>
<polygon fill="none" stroke="black" points="237,-3.5 237,-32.5 301,-32.5 301,-3.5 237,-3.5"/>
<text text-anchor="start" x="244" y="-14.3" font-family="Times,serif" font-size="14.00">header</text>
<polygon fill="none" stroke="black" points="301,-3.5 301,-32.5 355,-32.5 355,-3.5 301,-3.5"/>
<text text-anchor="start" x="308" y="-14.3" font-family="Times,serif" font-size="14.00">name</text>
</g>
<!-- pointers&#45;&gt;values -->
<g id="edge2" class="edge">
<title>pointers:f0&#45;&gt;values:f0</title>
<path fill="none" stroke="blue" d="M269,-73.47C269,-64.89 269,-54.23 269,-43.79"/>
<polygon fill="blue" stroke="blue" points="272.5,-43.5 269,-33.5 265.5,-43.5 272.5,-43.5"/>
</g>
</g>
</svg>
