<?xml version="1.0" encoding="UTF-8" standalone="no"?>
<!DOCTYPE svg PUBLIC "-//W3C//DTD SVG 1.1//EN"
 "http://www.w3.org/Graphics/SVG/1.1/DTD/svg11.dtd">
<!-- Generated by graphviz version 2.38.0 (20140413.2041)
 -->
<!-- Title: g Pages: 1 -->
<svg
 viewBox="0.00 0.00 587.00 184.00" xmlns="http://www.w3.org/2000/svg" xmlns:xlink="http://www.w3.org/1999/xlink">
<g id="graph0" class="graph" transform="scale(1 1) rotate(0) translate(4 180)">
<title>g</title>
<polygon fill="white" stroke="none" points="-4,4 -4,-180 583,-180 583,4 -4,4"/>
<!-- line0 -->
<g id="node1" class="node"><title>line0</title>
<polygon fill="none" stroke="black" points="0,-97.5 0,-175.5 79,-175.5 79,-97.5 0,-97.5"/>
<text text-anchor="middle" x="39.5" y="-158.7" font-family="Times,serif" font-size="16.00">l0</text>
<polyline fill="none" stroke="black" points="0,-149.5 79,-149.5 "/>
<text text-anchor="middle" x="39.5" y="-132.7" font-family="Times,serif" font-size="16.00">next</text>
<polyline fill="none" stroke="black" points="0,-123.5 79,-123.5 "/>
<text text-anchor="middle" x="39.5" y="-106.7" font-family="Times,serif" font-size="16.00">nextInPar</text>
</g>
<!-- line1 -->
<g id="node2" class="node"><title>line1</title>
<polygon fill="none" stroke="black" points="135,-97.5 135,-175.5 214,-175.5 214,-97.5 135,-97.5"/>
<text text-anchor="middle" x="174.5" y="-158.7" font-family="Times,serif" font-size="16.00">l1</text>
<polyline fill="none" stroke="black" points="135,-149.5 214,-149.5 "/>
<text text-anchor="middle" x="174.5" y="-132.7" font-family="Times,serif" font-size="16.00">next</text>
<polyline fill="none" stroke="black" points="135,-123.5 214,-123.5 "/>
<text text-anchor="middle" x="174.5" y="-106.7" font-family="Times,serif" font-size="16.00">nextInPar</text>
</g>
<!-- line0&#45;&gt;line1 -->
<g id="edge1" class="edge"><title>line0:next&#45;&gt;line1:next</title>
<path fill="none" stroke="black" d="M79,-136.5C99.4375,-136.5 106.942,-136.5 123.338,-136.5"/>
<polygon fill="black" stroke="black" points="123.5,-140 133.5,-136.5 123.5,-133 123.5,-140"/>
</g>
<!-- line2 -->
<g id="node3" class="node"><title>line2</title>
<polygon fill="none" stroke="black" points="270,-48.5 270,-126.5 349,-126.5 349,-48.5 270,-48.5"/>
<text text-anchor="middle" x="309.5" y="-109.7" font-family="Times,serif" font-size="16.00">l2</text>
<polyline fill="none" stroke="black" points="270,-100.5 349,-100.5 "/>
<text text-anchor="middle" x="309.5" y="-83.7" font-family="Times,serif" font-size="16.00">next</text>
<polyline fill="none" stroke="black" points="270,-74.5 349,-74.5 "/>
<text text-anchor="middle" x="309.5" y="-57.7" font-family="Times,serif" font-size="16.00">nextInPar</text>
</g>
<!-- line1&#45;&gt;line2 -->
<g id="edge2" class="edge"><title>line1:next&#45;&gt;line2:next</title>
<path fill="none" stroke="black" d="M215.5,-136.5C244.128,-136.5 239.372,-98.6487 259.915,-89.4815"/>
<polygon fill="black" stroke="black" points="260.862,-92.8623 270,-87.5 259.513,-85.9937 260.862,-92.8623"/>
</g>
<!-- line3 -->
<g id="node4" class="node"><title>line3</title>
<polygon fill="none" stroke="black" points="385,-48.5 385,-126.5 464,-126.5 464,-48.5 385,-48.5"/>
<text text-anchor="middle" x="424.5" y="-109.7" font-family="Times,serif" font-size="16.00">l3</text>
<polyline fill="none" stroke="black" points="385,-100.5 464,-100.5 "/>
<text text-anchor="middle" x="424.5" y="-83.7" font-family="Times,serif" font-size="16.00">next</text>
<polyline fill="none" stroke="black" points="385,-74.5 464,-74.5 "/>
<text text-anchor="middle" x="424.5" y="-57.7" font-family="Times,serif" font-size="16.00">nextInPar</text>
</g>
<!-- line2&#45;&gt;line3 -->
<g id="edge3" class="edge"><title>line2:next&#45;&gt;line3:next</title>
<path fill="none" stroke="black" d="M349,-87.5C361,-87.5 366.25,-87.5 374.875,-87.5"/>
<polygon fill="black" stroke="black" points="375,-91.0001 385,-87.5 375,-84.0001 375,-91.0001"/>
</g>
<!-- line2&#45;&gt;line3 -->
<g id="edge6" class="edge"><title>line2:nextInPar&#45;&gt;line3:nextInPar</title>
<path fill="none" stroke="red" d="M349,-61.5C361,-61.5 366.25,-61.5 374.875,-61.5"/>
<polygon fill="red" stroke="red" points="375,-65.0001 385,-61.5 375,-58.0001 375,-65.0001"/>
</g>
<!-- line4 -->
<g id="node5" class="node"><title>line4</title>
<polygon fill="none" stroke="black" points="500,-48.5 500,-126.5 579,-126.5 579,-48.5 500,-48.5"/>
<text text-anchor="middle" x="539.5" y="-109.7" font-family="Times,serif" font-size="16.00">l4</text>
<polyline fill="none" stroke="black" points="500,-100.5 579,-100.5 "/>
<text text-anchor="middle" x="539.5" y="-83.7" font-family="Times,serif" font-size="16.00">next</text>
<polyline fill="none" stroke="black" points="500,-74.5 579,-74.5 "/>
<text text-anchor="middle" x="539.5" y="-57.7" font-family="Times,serif" font-size="16.00">nextInPar</text>
</g>
<!-- line3&#45;&gt;line4 -->
<g id="edge4" class="edge"><title>line3:next&#45;&gt;line4:next</title>
<path fill="none" stroke="black" d="M464,-87.5C476,-87.5 481.25,-87.5 489.875,-87.5"/>
<polygon fill="black" stroke="black" points="490,-91.0001 500,-87.5 490,-84.0001 490,-91.0001"/>
</g>
<!-- par0 -->
<g id="node6" class="node"><title>par0</title>
<path fill="none" stroke="black" d="M127,-0.5C127,-0.5 222,-0.5 222,-0.5 228,-0.5 234,-6.5 234,-12.5 234,-12.5 234,-66.5 234,-66.5 234,-72.5 228,-78.5 222,-78.5 222,-78.5 127,-78.5 127,-78.5 121,-78.5 115,-72.5 115,-66.5 115,-66.5 115,-12.5 115,-12.5 115,-6.5 121,-0.5 127,-0.5"/>
<text text-anchor="middle" x="174.5" y="-61.7" font-family="Times,serif" font-size="16.00">id: p</text>
<polyline fill="none" stroke="black" points="115,-52.5 234,-52.5 "/>
<text text-anchor="middle" x="174.5" y="-35.7" font-family="Times,serif" font-size="16.00">class: Paragraph</text>
<polyline fill="none" stroke="black" points="115,-26.5 234,-26.5 "/>
<text text-anchor="middle" x="174.5" y="-9.7" font-family="Times,serif" font-size="16.00">first line</text>
</g>
<!-- par0&#45;&gt;line2 -->
<g id="edge5" class="edge"><title>par0:firstLine&#45;&gt;line2:nextInPar</title>
<path fill="none" stroke="red" d="M234,-13.5C256.5,-13.5 247.676,-47.6719 260.387,-58.3506"/>
<polygon fill="red" stroke="red" points="259.407,-61.7126 270,-61.5 261.587,-55.0605 259.407,-61.7126"/>
</g>
</g>
</svg>
