<?xml version="1.0" encoding="UTF-8" standalone="no"?>
<!DOCTYPE svg PUBLIC "-//W3C//DTD SVG 1.1//EN"
 "http://www.w3.org/Graphics/SVG/1.1/DTD/svg11.dtd">
<!-- Generated by graphviz version 2.38.0 (20140413.2041)
 -->
<!-- Title: g Pages: 1 -->
<svg
 viewBox="0.00 0.00 356.00 217.00" xmlns="http://www.w3.org/2000/svg" xmlns:xlink="http://www.w3.org/1999/xlink">
<g id="graph0" class="graph" transform="scale(1 1) rotate(0) translate(4 213)">
<title>g</title>
<polygon fill="white" stroke="none" points="-4,4 -4,-213 352,-213 352,4 -4,4"/>
<!-- line0 -->
<g id="node1" class="node"><title>line0</title>
<polygon fill="none" stroke="black" points="0,-130.5 0,-208.5 54,-208.5 54,-130.5 0,-130.5"/>
<text text-anchor="middle" x="27" y="-191.7" font-family="Times,serif" font-size="16.00">prop</text>
<polyline fill="none" stroke="black" points="0,-182.5 54,-182.5 "/>
<text text-anchor="middle" x="27" y="-165.7" font-family="Times,serif" font-size="16.00"> </text>
<polyline fill="none" stroke="black" points="0,-156.5 54,-156.5 "/>
<text text-anchor="middle" x="27" y="-139.7" font-family="Times,serif" font-size="16.00"> </text>
</g>
<!-- line1 -->
<g id="node2" class="node"><title>line1</title>
<polygon fill="none" stroke="black" points="90,-52.5 90,-156.5 158,-156.5 158,-52.5 90,-52.5"/>
<text text-anchor="middle" x="124" y="-139.7" font-family="Times,serif" font-size="16.00">a</text>
<polyline fill="none" stroke="black" points="90,-130.5 158,-130.5 "/>
<text text-anchor="middle" x="124" y="-113.7" font-family="Times,serif" font-size="16.00">args: [a]</text>
<polyline fill="none" stroke="black" points="90,-104.5 158,-104.5 "/>
<text text-anchor="middle" x="124" y="-87.7" font-family="Times,serif" font-size="16.00"> </text>
<polyline fill="none" stroke="black" points="90,-78.5 158,-78.5 "/>
<text text-anchor="middle" x="124" y="-61.7" font-family="Times,serif" font-size="16.00"> </text>
</g>
<!-- line0&#45;&gt;line1 -->
<g id="edge1" class="edge"><title>line0:next&#45;&gt;line1:head</title>
<path fill="none" stroke="black" d="M54,-143.5C66,-143.5 71.25,-143.5 79.875,-143.5"/>
<polygon fill="black" stroke="black" points="80,-147 90,-143.5 80,-140 80,-147"/>
</g>
<!-- line2 -->
<g id="node3" class="node"><title>line2</title>
<polygon fill="none" stroke="black" points="194,-52.5 194,-130.5 258,-130.5 258,-52.5 194,-52.5"/>
<text text-anchor="middle" x="226" y="-113.7" font-family="Times,serif" font-size="16.00">proof</text>
<polyline fill="none" stroke="black" points="194,-104.5 258,-104.5 "/>
<text text-anchor="middle" x="226" y="-87.7" font-family="Times,serif" font-size="16.00">context</text>
<polyline fill="none" stroke="black" points="194,-78.5 258,-78.5 "/>
<text text-anchor="middle" x="226" y="-61.7" font-family="Times,serif" font-size="16.00"> </text>
</g>
<!-- line1&#45;&gt;line2 -->
<g id="edge2" class="edge"><title>line1:next&#45;&gt;line2:head</title>
<path fill="none" stroke="black" d="M158,-65.5C181.937,-65.5 170.828,-103.208 184.361,-114.403"/>
<polygon fill="black" stroke="black" points="183.409,-117.773 194,-117.5 185.55,-111.109 183.409,-117.773"/>
</g>
<!-- line2&#45;&gt;line1 -->
<g id="edge3" class="edge"><title>line2:context&#45;&gt;line1:head</title>
<path fill="none" stroke="black" stroke-dasharray="5,2" d="M194,-91.5C170.063,-91.5 181.172,-129.208 167.639,-140.403"/>
<polygon fill="black" stroke="black" points="166.45,-137.109 158,-143.5 168.591,-143.773 166.45,-137.109"/>
</g>
<!-- line3 -->
<g id="node4" class="node"><title>line3</title>
<polygon fill="none" stroke="black" points="294,-0.5 294,-78.5 348,-78.5 348,-0.5 294,-0.5"/>
<text text-anchor="middle" x="321" y="-61.7" font-family="Times,serif" font-size="16.00">term</text>
<polyline fill="none" stroke="black" points="294,-52.5 348,-52.5 "/>
<text text-anchor="middle" x="321" y="-35.7" font-family="Times,serif" font-size="16.00"> </text>
<polyline fill="none" stroke="black" points="294,-26.5 348,-26.5 "/>
<text text-anchor="middle" x="321" y="-9.7" font-family="Times,serif" font-size="16.00"> </text>
</g>
<!-- line2&#45;&gt;line3 -->
<g id="edge4" class="edge"><title>line2:next&#45;&gt;line3:head</title>
<path fill="none" stroke="black" d="M258,-65.5C270,-65.5 275.25,-65.5 283.875,-65.5"/>
<polygon fill="black" stroke="black" points="284,-69.0001 294,-65.5 284,-62.0001 284,-69.0001"/>
</g>
</g>
</svg>
