<?xml version="1.0" encoding="UTF-8" standalone="no"?>
<!DOCTYPE svg PUBLIC "-//W3C//DTD SVG 1.1//EN"
 "http://www.w3.org/Graphics/SVG/1.1/DTD/svg11.dtd">
<!-- Generated by graphviz version 2.38.0 (20140413.2041)
 -->
<!-- Title: g Pages: 1 -->
<svg width="242pt" height="113pt"
 viewBox="0.00 0.00 242.00 113.00" xmlns="http://www.w3.org/2000/svg" xmlns:xlink="http://www.w3.org/1999/xlink">
<g id="graph0" class="graph" transform="scale(1 1) rotate(0) translate(4 109)">
<title>g</title>
<polygon fill="white" stroke="none" points="-4,4 -4,-109 238,-109 238,4 -4,4"/>
<!-- line0 -->
<g id="node1" class="node"><title>line0</title>
<polygon fill="none" stroke="black" points="0,-26.5 0,-104.5 54,-104.5 54,-26.5 0,-26.5"/>
<text text-anchor="middle" x="27" y="-87.7" font-family="Times,serif" font-size="16.00">prop</text>
<polyline fill="none" stroke="black" points="0,-78.5 54,-78.5 "/>
<text text-anchor="middle" x="27" y="-61.7" font-family="Times,serif" font-size="16.00">prev</text>
<polyline fill="none" stroke="black" points="0,-52.5 54,-52.5 "/>
<text text-anchor="middle" x="27" y="-35.7" font-family="Times,serif" font-size="16.00">next</text>
</g>
<!-- line1 -->
<g id="node2" class="node"><title>line1</title>
<polygon fill="none" stroke="black" points="90,-13.5 90,-91.5 144,-91.5 144,-13.5 90,-13.5"/>
<text text-anchor="middle" x="117" y="-74.7" font-family="Times,serif" font-size="16.00">proof</text>
<polyline fill="none" stroke="black" points="90,-65.5 144,-65.5 "/>
<text text-anchor="middle" x="117" y="-48.7" font-family="Times,serif" font-size="16.00">prev</text>
<polyline fill="none" stroke="black" points="90,-39.5 144,-39.5 "/>
<text text-anchor="middle" x="117" y="-22.7" font-family="Times,serif" font-size="16.00">next</text>
</g>
<!-- line0&#45;&gt;line1 -->
<g id="edge1" class="edge"><title>line0:next&#45;&gt;line1:head</title>
<path fill="none" stroke="black" d="M54,-39.5C73.3504,-39.5 69.3055,-65.7436 80.2482,-75.1749"/>
<polygon fill="black" stroke="black" points="79.4055,-78.5853 90,-78.5 81.6647,-71.9599 79.4055,-78.5853"/>
</g>
<!-- line1&#45;&gt;line0 -->
<g id="edge2" class="edge"><title>line1:prev&#45;&gt;line0:head</title>
<path fill="none" stroke="black" stroke-dasharray="5,2" d="M90,-52.5C70.6496,-52.5 74.6945,-78.7436 63.7518,-88.1749"/>
<polygon fill="black" stroke="black" points="62.3353,-84.9599 54,-91.5 64.5945,-91.5853 62.3353,-84.9599"/>
</g>
<!-- line2 -->
<g id="node3" class="node"><title>line2</title>
<polygon fill="none" stroke="black" points="180,-0.5 180,-78.5 234,-78.5 234,-0.5 180,-0.5"/>
<text text-anchor="middle" x="207" y="-61.7" font-family="Times,serif" font-size="16.00">term</text>
<polyline fill="none" stroke="black" points="180,-52.5 234,-52.5 "/>
<text text-anchor="middle" x="207" y="-35.7" font-family="Times,serif" font-size="16.00">prev</text>
<polyline fill="none" stroke="black" points="180,-26.5 234,-26.5 "/>
<text text-anchor="middle" x="207" y="-9.7" font-family="Times,serif" font-size="16.00">next</text>
</g>
<!-- line1&#45;&gt;line2 -->
<g id="edge3" class="edge"><title>line1:next&#45;&gt;line2:head</title>
<path fill="none" stroke="black" d="M144,-26.5C163.35,-26.5 159.306,-52.7436 170.248,-62.1749"/>
<polygon fill="black" stroke="black" points="169.406,-65.5853 180,-65.5 171.665,-58.9599 169.406,-65.5853"/>
</g>
<!-- line2&#45;&gt;line1 -->
<g id="edge4" class="edge"><title>line2:prev&#45;&gt;line1:head</title>
<path fill="none" stroke="black" stroke-dasharray="5,2" d="M180,-39.5C160.65,-39.5 164.694,-65.7436 153.752,-75.1749"/>
<polygon fill="black" stroke="black" points="152.335,-71.9599 144,-78.5 154.594,-78.5853 152.335,-71.9599"/>
</g>
</g>
</svg>
