<?xml version="1.0" encoding="UTF-8" standalone="no"?>
<!DOCTYPE svg PUBLIC "-//W3C//DTD SVG 1.1//EN"
 "http://www.w3.org/Graphics/SVG/1.1/DTD/svg11.dtd">
<!-- Generated by graphviz version 2.38.0 (20140413.2041)
 -->
<!-- Title: g Pages: 1 -->
<svg
 viewBox="0.00 0.00 547.00 158.00" xmlns="http://www.w3.org/2000/svg" xmlns:xlink="http://www.w3.org/1999/xlink">
<g id="graph0" class="graph" transform="scale(1 1) rotate(0) translate(4 154)">
<title>g</title>
<polygon fill="white" stroke="none" points="-4,4 -4,-154 543,-154 543,4 -4,4"/>
<!-- line0 -->
<g id="node1" class="node"><title>line0</title>
<polygon fill="none" stroke="black" points="-5.68434e-14,-71.5 -5.68434e-14,-149.5 79,-149.5 79,-71.5 -5.68434e-14,-71.5"/>
<text text-anchor="middle" x="39.5" y="-132.7" font-family="Times,serif" font-size="16.00">l0</text>
<polyline fill="none" stroke="black" points="-5.68434e-14,-123.5 79,-123.5 "/>
<text text-anchor="middle" x="39.5" y="-106.7" font-family="Times,serif" font-size="16.00">next</text>
<polyline fill="none" stroke="black" points="-5.68434e-14,-97.5 79,-97.5 "/>
<text text-anchor="middle" x="39.5" y="-80.7" font-family="Times,serif" font-size="16.00">nextInPar</text>
</g>
<!-- line1 -->
<g id="node2" class="node"><title>line1</title>
<polygon fill="none" stroke="black" points="115,-71.5 115,-149.5 194,-149.5 194,-71.5 115,-71.5"/>
<text text-anchor="middle" x="154.5" y="-132.7" font-family="Times,serif" font-size="16.00">l1</text>
<polyline fill="none" stroke="black" points="115,-123.5 194,-123.5 "/>
<text text-anchor="middle" x="154.5" y="-106.7" font-family="Times,serif" font-size="16.00">next</text>
<polyline fill="none" stroke="black" points="115,-97.5 194,-97.5 "/>
<text text-anchor="middle" x="154.5" y="-80.7" font-family="Times,serif" font-size="16.00">nextInPar</text>
</g>
<!-- line0&#45;&gt;line1 -->
<g id="edge1" class="edge"><title>line0:next&#45;&gt;line1:next</title>
<path fill="none" stroke="black" d="M79,-110.5C91,-110.5 96.25,-110.5 104.875,-110.5"/>
<polygon fill="black" stroke="black" points="105,-114 115,-110.5 105,-107 105,-114"/>
</g>
<!-- line2 -->
<g id="node3" class="node"><title>line2</title>
<polygon fill="none" stroke="black" points="230,-35.5 230,-113.5 309,-113.5 309,-35.5 230,-35.5"/>
<text text-anchor="middle" x="269.5" y="-96.7" font-family="Times,serif" font-size="16.00">l2</text>
<polyline fill="none" stroke="black" points="230,-87.5 309,-87.5 "/>
<text text-anchor="middle" x="269.5" y="-70.7" font-family="Times,serif" font-size="16.00">next</text>
<polyline fill="none" stroke="black" points="230,-61.5 309,-61.5 "/>
<text text-anchor="middle" x="269.5" y="-44.7" font-family="Times,serif" font-size="16.00">nextInPar</text>
</g>
<!-- line1&#45;&gt;line2 -->
<g id="edge2" class="edge"><title>line1:next&#45;&gt;line2:next</title>
<path fill="none" stroke="black" d="M194,-110.5C212.385,-110.5 209.722,-86.7344 220.214,-77.8223"/>
<polygon fill="black" stroke="black" points="221.656,-81.0291 230,-74.5 219.406,-74.4007 221.656,-81.0291"/>
</g>
<!-- line3 -->
<g id="node4" class="node"><title>line3</title>
<polygon fill="none" stroke="black" points="345,-35.5 345,-113.5 424,-113.5 424,-35.5 345,-35.5"/>
<text text-anchor="middle" x="384.5" y="-96.7" font-family="Times,serif" font-size="16.00">l3</text>
<polyline fill="none" stroke="black" points="345,-87.5 424,-87.5 "/>
<text text-anchor="middle" x="384.5" y="-70.7" font-family="Times,serif" font-size="16.00">next</text>
<polyline fill="none" stroke="black" points="345,-61.5 424,-61.5 "/>
<text text-anchor="middle" x="384.5" y="-44.7" font-family="Times,serif" font-size="16.00">nextInPar</text>
</g>
<!-- line2&#45;&gt;line3 -->
<g id="edge3" class="edge"><title>line2:next&#45;&gt;line3:next</title>
<path fill="none" stroke="black" d="M309,-74.5C321,-74.5 326.25,-74.5 334.875,-74.5"/>
<polygon fill="black" stroke="black" points="335,-78.0001 345,-74.5 335,-71.0001 335,-78.0001"/>
</g>
<!-- line2&#45;&gt;line3 -->
<g id="edge6" class="edge"><title>line2:nextInPar&#45;&gt;line3:nextInPar</title>
<path fill="none" stroke="black" d="M309,-48.5C321,-48.5 326.25,-48.5 334.875,-48.5"/>
<polygon fill="black" stroke="black" points="335,-52.0001 345,-48.5 335,-45.0001 335,-52.0001"/>
</g>
<!-- line4 -->
<g id="node5" class="node"><title>line4</title>
<polygon fill="none" stroke="black" points="460,-35.5 460,-113.5 539,-113.5 539,-35.5 460,-35.5"/>
<text text-anchor="middle" x="499.5" y="-96.7" font-family="Times,serif" font-size="16.00">l4</text>
<polyline fill="none" stroke="black" points="460,-87.5 539,-87.5 "/>
<text text-anchor="middle" x="499.5" y="-70.7" font-family="Times,serif" font-size="16.00">next</text>
<polyline fill="none" stroke="black" points="460,-61.5 539,-61.5 "/>
<text text-anchor="middle" x="499.5" y="-44.7" font-family="Times,serif" font-size="16.00">nextInPar</text>
</g>
<!-- line3&#45;&gt;line4 -->
<g id="edge4" class="edge"><title>line3:next&#45;&gt;line4:next</title>
<path fill="none" stroke="black" d="M424,-74.5C436,-74.5 441.25,-74.5 449.875,-74.5"/>
<polygon fill="black" stroke="black" points="450,-78.0001 460,-74.5 450,-71.0001 450,-78.0001"/>
</g>
<!-- par0 -->
<g id="node6" class="node"><title>par0</title>
<polygon fill="none" stroke="black" points="119.5,-0.5 119.5,-52.5 189.5,-52.5 189.5,-0.5 119.5,-0.5"/>
<text text-anchor="middle" x="154.5" y="-35.7" font-family="Times,serif" font-size="16.00">p</text>
<polyline fill="none" stroke="black" points="119.5,-26.5 189.5,-26.5 "/>
<text text-anchor="middle" x="154.5" y="-9.7" font-family="Times,serif" font-size="16.00">first line</text>
</g>
<!-- par0&#45;&gt;line2 -->
<g id="edge5" class="edge"><title>par0:firstLine&#45;&gt;line2:nextInPar</title>
<path fill="none" stroke="black" d="M190.5,-13.5C209.924,-13.5 208.18,-37.5027 220.328,-45.7536"/>
<polygon fill="black" stroke="black" points="219.424,-49.1354 230,-48.5 221.336,-42.4016 219.424,-49.1354"/>
</g>
</g>
</svg>
