<?xml version="1.0" encoding="UTF-8" standalone="no"?>
<!DOCTYPE svg PUBLIC "-//W3C//DTD SVG 1.1//EN"
 "http://www.w3.org/Graphics/SVG/1.1/DTD/svg11.dtd">
<!-- Generated by graphviz version 2.38.0 (20140413.2041)
 -->
<!-- Title: g Pages: 1 -->
<svg 
 viewBox="14.40 14.40 392.40 166.40" xmlns="http://www.w3.org/2000/svg" xmlns:xlink="http://www.w3.org/1999/xlink">
<g id="graph0" class="graph" transform="scale(1 1) rotate(0) translate(18.4 162.4)">
<title>g</title>
<polygon fill="white" stroke="none" points="-4,4 -4,-148 374,-148 374,4 -4,4"/>
<!-- line0 -->
<g id="node1" class="node"><title>line0</title>
<polygon fill="none" stroke="black" points="0,-13.5 0,-143.5 72,-143.5 72,-13.5 0,-13.5"/>
<text text-anchor="middle" x="36" y="-126.7" font-family="Times,serif" font-size="16.00">x</text>
<polyline fill="none" stroke="black" points="0,-117.5 72,-117.5 "/>
<text text-anchor="middle" x="36" y="-100.7" font-family="Times,serif" font-size="16.00">term</text>
<polyline fill="none" stroke="black" points="0,-91.5 72,-91.5 "/>
<text text-anchor="middle" x="36" y="-74.7" font-family="Times,serif" font-size="16.00">args: [x]</text>
<polyline fill="none" stroke="black" points="0,-65.5 72,-65.5 "/>
<text text-anchor="middle" x="36" y="-48.7" font-family="Times,serif" font-size="16.00">context</text>
<polyline fill="none" stroke="black" points="0,-39.5 72,-39.5 "/>
<text text-anchor="middle" x="36" y="-22.7" font-family="Times,serif" font-size="16.00">next</text>
</g>
<!-- line1 -->
<g id="node2" class="node"><title>line1</title>
<polygon fill="none" stroke="black" points="144,-0.5 144,-130.5 226,-130.5 226,-0.5 144,-0.5"/>
<text text-anchor="middle" x="185" y="-113.7" font-family="Times,serif" font-size="16.00">y</text>
<polyline fill="none" stroke="black" points="144,-104.5 226,-104.5 "/>
<text text-anchor="middle" x="185" y="-87.7" font-family="Times,serif" font-size="16.00">term</text>
<polyline fill="none" stroke="black" points="144,-78.5 226,-78.5 "/>
<text text-anchor="middle" x="185" y="-61.7" font-family="Times,serif" font-size="16.00">args: [x,y]</text>
<polyline fill="none" stroke="black" points="144,-52.5 226,-52.5 "/>
<text text-anchor="middle" x="185" y="-35.7" font-family="Times,serif" font-size="16.00">context</text>
<polyline fill="none" stroke="black" points="144,-26.5 226,-26.5 "/>
<text text-anchor="middle" x="185" y="-9.7" font-family="Times,serif" font-size="16.00">next</text>
</g>
<!-- line0&#45;&gt;line1 -->
<g id="edge1" class="edge"><title>line0:next&#45;&gt;line1:head</title>
<path fill="none" stroke="black" d="M72,-26.5C119.745,-26.5 96.5947,-104.493 133.816,-116.071"/>
<polygon fill="black" stroke="black" points="133.611,-119.576 144,-117.5 134.584,-112.644 133.611,-119.576"/>
</g>
<!-- line1&#45;&gt;line0 -->
<g id="edge3" class="edge"><title>line1:context&#45;&gt;line0:head</title>
<path fill="none" stroke="black" stroke-dasharray="5,2" d="M144,-39.5C96.2549,-39.5 119.405,-117.493 82.1837,-129.071"/>
<polygon fill="black" stroke="black" points="81.4164,-125.644 72,-130.5 82.3895,-132.576 81.4164,-125.644"/>
</g>
<!-- line2 -->
<g id="node3" class="node"><title>line2</title>
<polygon fill="none" stroke="black" points="298,-0.5 298,-104.5 370,-104.5 370,-0.5 298,-0.5"/>
<text text-anchor="middle" x="334" y="-87.7" font-family="Times,serif" font-size="16.00">eq</text>
<polyline fill="none" stroke="black" points="298,-78.5 370,-78.5 "/>
<text text-anchor="middle" x="334" y="-61.7" font-family="Times,serif" font-size="16.00">prop</text>
<polyline fill="none" stroke="black" points="298,-52.5 370,-52.5 "/>
<text text-anchor="middle" x="334" y="-35.7" font-family="Times,serif" font-size="16.00">context</text>
<polyline fill="none" stroke="black" points="298,-26.5 370,-26.5 "/>
<text text-anchor="middle" x="334" y="-9.7" font-family="Times,serif" font-size="16.00">next</text>
</g>
<!-- line1&#45;&gt;line2 -->
<g id="edge2" class="edge"><title>line1:next&#45;&gt;line2:head</title>
<path fill="none" stroke="black" d="M226,-13.5C269.308,-13.5 254.022,-79.228 287.717,-90.0115"/>
<polygon fill="black" stroke="black" points="287.602,-93.5313 298,-91.5 288.605,-86.6035 287.602,-93.5313"/>
</g>
<!-- line2&#45;&gt;line1 -->
<g id="edge4" class="edge"><title>line2:context&#45;&gt;line1:head</title>
<path fill="none" stroke="black" stroke-dasharray="5,2" d="M298,-39.5C254.692,-39.5 269.978,-105.228 236.283,-116.011"/>
<polygon fill="black" stroke="black" points="235.395,-112.603 226,-117.5 236.398,-119.531 235.395,-112.603"/>
</g>
</g>
</svg>
