<?xml version="1.0" encoding="UTF-8" standalone="no"?>
<!DOCTYPE svg PUBLIC "-//W3C//DTD SVG 1.1//EN"
 "http://www.w3.org/Graphics/SVG/1.1/DTD/svg11.dtd">
<!-- Generated by graphviz version 2.38.0 (20140413.2041)
 -->
<!-- Title: g Pages: 1 -->
<svg
 viewBox="0.00 0.00 1162.00 184.00" xmlns="http://www.w3.org/2000/svg" xmlns:xlink="http://www.w3.org/1999/xlink">
<g id="graph0" class="graph" transform="scale(1 1) rotate(0) translate(4 180)">
<title>g</title>
<polygon fill="white" stroke="none" points="-4,4 -4,-180 1158,-180 1158,4 -4,4"/>
<!-- line0 -->
<g id="node1" class="node"><title>line0</title>
<polygon fill="none" stroke="black" points="0,-97.5 0,-175.5 79,-175.5 79,-97.5 0,-97.5"/>
<text text-anchor="middle" x="39.5" y="-158.7" font-family="Times,serif" font-size="16.00">l0</text>
<polyline fill="none" stroke="black" points="0,-149.5 79,-149.5 "/>
<text text-anchor="middle" x="39.5" y="-132.7" font-family="Times,serif" font-size="16.00">next</text>
<polyline fill="none" stroke="black" points="0,-123.5 79,-123.5 "/>
<text text-anchor="middle" x="39.5" y="-106.7" font-family="Times,serif" font-size="16.00">nextInPar</text>
</g>
<!-- line1 -->
<g id="node2" class="node"><title>line1</title>
<polygon fill="none" stroke="black" points="135,-97.5 135,-175.5 214,-175.5 214,-97.5 135,-97.5"/>
<text text-anchor="middle" x="174.5" y="-158.7" font-family="Times,serif" font-size="16.00">l1</text>
<polyline fill="none" stroke="black" points="135,-149.5 214,-149.5 "/>
<text text-anchor="middle" x="174.5" y="-132.7" font-family="Times,serif" font-size="16.00">next</text>
<polyline fill="none" stroke="black" points="135,-123.5 214,-123.5 "/>
<text text-anchor="middle" x="174.5" y="-106.7" font-family="Times,serif" font-size="16.00">nextInPar</text>
</g>
<!-- line0&#45;&gt;line1 -->
<g id="edge1" class="edge"><title>line0:next&#45;&gt;line1:next</title>
<path fill="none" stroke="black" d="M79,-136.5C99.4375,-136.5 106.942,-136.5 123.338,-136.5"/>
<polygon fill="black" stroke="black" points="123.5,-140 133.5,-136.5 123.5,-133 123.5,-140"/>
</g>
<!-- line2 -->
<g id="node3" class="node"><title>line2</title>
<polygon fill="none" stroke="black" points="270,-48.5 270,-126.5 349,-126.5 349,-48.5 270,-48.5"/>
<text text-anchor="middle" x="309.5" y="-109.7" font-family="Times,serif" font-size="16.00">l2</text>
<polyline fill="none" stroke="black" points="270,-100.5 349,-100.5 "/>
<text text-anchor="middle" x="309.5" y="-83.7" font-family="Times,serif" font-size="16.00">next</text>
<polyline fill="none" stroke="black" points="270,-74.5 349,-74.5 "/>
<text text-anchor="middle" x="309.5" y="-57.7" font-family="Times,serif" font-size="16.00">nextInPar</text>
</g>
<!-- line1&#45;&gt;line2 -->
<g id="edge2" class="edge"><title>line1:next&#45;&gt;line2:next</title>
<path fill="none" stroke="black" d="M215.5,-136.5C244.128,-136.5 239.372,-98.6487 259.915,-89.4815"/>
<polygon fill="black" stroke="black" points="260.862,-92.8623 270,-87.5 259.513,-85.9937 260.862,-92.8623"/>
</g>
<!-- line3 -->
<g id="node4" class="node"><title>line3</title>
<polygon fill="none" stroke="black" points="385,-48.5 385,-126.5 464,-126.5 464,-48.5 385,-48.5"/>
<text text-anchor="middle" x="424.5" y="-109.7" font-family="Times,serif" font-size="16.00">l3</text>
<polyline fill="none" stroke="black" points="385,-100.5 464,-100.5 "/>
<text text-anchor="middle" x="424.5" y="-83.7" font-family="Times,serif" font-size="16.00">next</text>
<polyline fill="none" stroke="black" points="385,-74.5 464,-74.5 "/>
<text text-anchor="middle" x="424.5" y="-57.7" font-family="Times,serif" font-size="16.00">nextInPar</text>
</g>
<!-- line2&#45;&gt;line3 -->
<g id="edge3" class="edge"><title>line2:next&#45;&gt;line3:next</title>
<path fill="none" stroke="black" d="M349,-87.5C361,-87.5 366.25,-87.5 374.875,-87.5"/>
<polygon fill="black" stroke="black" points="375,-91.0001 385,-87.5 375,-84.0001 375,-91.0001"/>
</g>
<!-- line2&#45;&gt;line3 -->
<g id="edge11" class="edge"><title>line2:nextInPar&#45;&gt;line3:nextInPar</title>
<path fill="none" stroke="red" d="M349,-61.5C361,-61.5 366.25,-61.5 374.875,-61.5"/>
<polygon fill="red" stroke="red" points="375,-65.0001 385,-61.5 375,-58.0001 375,-65.0001"/>
</g>
<!-- line4 -->
<g id="node5" class="node"><title>line4</title>
<polygon fill="none" stroke="black" points="500,-69.5 500,-147.5 579,-147.5 579,-69.5 500,-69.5"/>
<text text-anchor="middle" x="539.5" y="-130.7" font-family="Times,serif" font-size="16.00">l4</text>
<polyline fill="none" stroke="black" points="500,-121.5 579,-121.5 "/>
<text text-anchor="middle" x="539.5" y="-104.7" font-family="Times,serif" font-size="16.00">next</text>
<polyline fill="none" stroke="black" points="500,-95.5 579,-95.5 "/>
<text text-anchor="middle" x="539.5" y="-78.7" font-family="Times,serif" font-size="16.00">nextInPar</text>
</g>
<!-- line3&#45;&gt;line4 -->
<g id="edge4" class="edge"><title>line3:next&#45;&gt;line4:next</title>
<path fill="none" stroke="black" d="M464,-87.5C478.471,-87.5 480.998,-100.317 490.244,-105.925"/>
<polygon fill="black" stroke="black" points="489.438,-109.332 500,-108.5 491.224,-102.564 489.438,-109.332"/>
</g>
<!-- line6 -->
<g id="node7" class="node"><title>line6</title>
<polygon fill="none" stroke="black" points="730,-48.5 730,-126.5 809,-126.5 809,-48.5 730,-48.5"/>
<text text-anchor="middle" x="769.5" y="-109.7" font-family="Times,serif" font-size="16.00">l6</text>
<polyline fill="none" stroke="black" points="730,-100.5 809,-100.5 "/>
<text text-anchor="middle" x="769.5" y="-83.7" font-family="Times,serif" font-size="16.00">next</text>
<polyline fill="none" stroke="black" points="730,-74.5 809,-74.5 "/>
<text text-anchor="middle" x="769.5" y="-57.7" font-family="Times,serif" font-size="16.00">nextInPar</text>
</g>
<!-- line3&#45;&gt;line6 -->
<g id="edge12" class="edge"><title>line3:nextInPar&#45;&gt;line6:nextInPar</title>
<path fill="none" stroke="red" d="M464,-61.5C480.025,-61.5 483.981,-59.9446 500,-59.5 586.189,-57.1077 607.811,-57.1077 694,-59.5 706.014,-59.8335 711.243,-60.7917 719.867,-61.25"/>
<polygon fill="red" stroke="red" points="719.917,-64.7522 730,-61.5 720.089,-57.7543 719.917,-64.7522"/>
</g>
<!-- line5 -->
<g id="node6" class="node"><title>line5</title>
<polygon fill="none" stroke="black" points="615,-69.5 615,-147.5 694,-147.5 694,-69.5 615,-69.5"/>
<text text-anchor="middle" x="654.5" y="-130.7" font-family="Times,serif" font-size="16.00">l5</text>
<polyline fill="none" stroke="black" points="615,-121.5 694,-121.5 "/>
<text text-anchor="middle" x="654.5" y="-104.7" font-family="Times,serif" font-size="16.00">next</text>
<polyline fill="none" stroke="black" points="615,-95.5 694,-95.5 "/>
<text text-anchor="middle" x="654.5" y="-78.7" font-family="Times,serif" font-size="16.00">nextInPar</text>
</g>
<!-- line4&#45;&gt;line5 -->
<g id="edge5" class="edge"><title>line4:next&#45;&gt;line5:next</title>
<path fill="none" stroke="black" d="M579,-108.5C591,-108.5 596.25,-108.5 604.875,-108.5"/>
<polygon fill="black" stroke="black" points="605,-112 615,-108.5 605,-105 605,-112"/>
</g>
<!-- line5&#45;&gt;line6 -->
<g id="edge6" class="edge"><title>line5:next&#45;&gt;line6:next</title>
<path fill="none" stroke="black" d="M694,-108.5C708.471,-108.5 710.998,-95.6826 720.244,-90.075"/>
<polygon fill="black" stroke="black" points="721.224,-93.4361 730,-87.5 719.438,-86.6679 721.224,-93.4361"/>
</g>
<!-- line7 -->
<g id="node8" class="node"><title>line7</title>
<polygon fill="none" stroke="black" points="845,-48.5 845,-126.5 924,-126.5 924,-48.5 845,-48.5"/>
<text text-anchor="middle" x="884.5" y="-109.7" font-family="Times,serif" font-size="16.00">l7</text>
<polyline fill="none" stroke="black" points="845,-100.5 924,-100.5 "/>
<text text-anchor="middle" x="884.5" y="-83.7" font-family="Times,serif" font-size="16.00">next</text>
<polyline fill="none" stroke="black" points="845,-74.5 924,-74.5 "/>
<text text-anchor="middle" x="884.5" y="-57.7" font-family="Times,serif" font-size="16.00">nextInPar</text>
</g>
<!-- line6&#45;&gt;line7 -->
<g id="edge7" class="edge"><title>line6:next&#45;&gt;line7:next</title>
<path fill="none" stroke="black" d="M809,-87.5C821,-87.5 826.25,-87.5 834.875,-87.5"/>
<polygon fill="black" stroke="black" points="835,-91.0001 845,-87.5 835,-84.0001 835,-91.0001"/>
</g>
<!-- line6&#45;&gt;line7 -->
<g id="edge13" class="edge"><title>line6:nextInPar&#45;&gt;line7:nextInPar</title>
<path fill="none" stroke="red" d="M809,-61.5C821,-61.5 826.25,-61.5 834.875,-61.5"/>
<polygon fill="red" stroke="red" points="835,-65.0001 845,-61.5 835,-58.0001 835,-65.0001"/>
</g>
<!-- line8 -->
<g id="node9" class="node"><title>line8</title>
<polygon fill="none" stroke="black" points="960,-48.5 960,-126.5 1039,-126.5 1039,-48.5 960,-48.5"/>
<text text-anchor="middle" x="999.5" y="-109.7" font-family="Times,serif" font-size="16.00">l8</text>
<polyline fill="none" stroke="black" points="960,-100.5 1039,-100.5 "/>
<text text-anchor="middle" x="999.5" y="-83.7" font-family="Times,serif" font-size="16.00">next</text>
<polyline fill="none" stroke="black" points="960,-74.5 1039,-74.5 "/>
<text text-anchor="middle" x="999.5" y="-57.7" font-family="Times,serif" font-size="16.00">nextInPar</text>
</g>
<!-- line7&#45;&gt;line8 -->
<g id="edge8" class="edge"><title>line7:next&#45;&gt;line8:next</title>
<path fill="none" stroke="black" d="M924,-87.5C936,-87.5 941.25,-87.5 949.875,-87.5"/>
<polygon fill="black" stroke="black" points="950,-91.0001 960,-87.5 950,-84.0001 950,-91.0001"/>
</g>
<!-- line9 -->
<g id="node10" class="node"><title>line9</title>
<polygon fill="none" stroke="black" points="1075,-48.5 1075,-126.5 1154,-126.5 1154,-48.5 1075,-48.5"/>
<text text-anchor="middle" x="1114.5" y="-109.7" font-family="Times,serif" font-size="16.00">l9</text>
<polyline fill="none" stroke="black" points="1075,-100.5 1154,-100.5 "/>
<text text-anchor="middle" x="1114.5" y="-83.7" font-family="Times,serif" font-size="16.00">next</text>
<polyline fill="none" stroke="black" points="1075,-74.5 1154,-74.5 "/>
<text text-anchor="middle" x="1114.5" y="-57.7" font-family="Times,serif" font-size="16.00">nextInPar</text>
</g>
<!-- line8&#45;&gt;line9 -->
<g id="edge9" class="edge"><title>line8:next&#45;&gt;line9:next</title>
<path fill="none" stroke="black" d="M1039,-87.5C1051,-87.5 1056.25,-87.5 1064.88,-87.5"/>
<polygon fill="black" stroke="black" points="1065,-91.0001 1075,-87.5 1065,-84.0001 1065,-91.0001"/>
</g>
<!-- par0 -->
<g id="node11" class="node"><title>par0</title>
<path fill="none" stroke="black" d="M127,-0.5C127,-0.5 222,-0.5 222,-0.5 228,-0.5 234,-6.5 234,-12.5 234,-12.5 234,-66.5 234,-66.5 234,-72.5 228,-78.5 222,-78.5 222,-78.5 127,-78.5 127,-78.5 121,-78.5 115,-72.5 115,-66.5 115,-66.5 115,-12.5 115,-12.5 115,-6.5 121,-0.5 127,-0.5"/>
<text text-anchor="middle" x="174.5" y="-61.7" font-family="Times,serif" font-size="16.00">id: p</text>
<polyline fill="none" stroke="black" points="115,-52.5 234,-52.5 "/>
<text text-anchor="middle" x="174.5" y="-35.7" font-family="Times,serif" font-size="16.00">class: Paragraph</text>
<polyline fill="none" stroke="black" points="115,-26.5 234,-26.5 "/>
<text text-anchor="middle" x="174.5" y="-9.7" font-family="Times,serif" font-size="16.00">first line</text>
</g>
<!-- par0&#45;&gt;line2 -->
<g id="edge10" class="edge"><title>par0:firstLine&#45;&gt;line2:nextInPar</title>
<path fill="none" stroke="red" d="M234,-13.5C256.5,-13.5 247.676,-47.6719 260.387,-58.3506"/>
<polygon fill="red" stroke="red" points="259.407,-61.7126 270,-61.5 261.587,-55.0605 259.407,-61.7126"/>
</g>
</g>
</svg>
