<?xml version="1.0" encoding="UTF-8" standalone="no"?>
<!DOCTYPE svg PUBLIC "-//W3C//DTD SVG 1.1//EN"
 "http://www.w3.org/Graphics/SVG/1.1/DTD/svg11.dtd">
<!-- Generated by graphviz version 7.0.4 (20221203.1631)
 -->
<!-- Pages: 1 -->
<svg width="461pt" height="601pt"
 viewBox="0.00 0.00 460.50 601.00" xmlns="http://www.w3.org/2000/svg" xmlns:xlink="http://www.w3.org/1999/xlink">
<g id="graph0" class="graph" transform="scale(1 1) rotate(0) translate(4 597)">
<polygon fill="white" stroke="none" points="-4,4 -4,-597 456.5,-597 456.5,4 -4,4"/>
<!-- start -->
<g id="node1" class="node">
<title>start</title>
<path fill="#0044ff" fill-opacity="0.133333" stroke="black" d="M239,-593C239,-593 209,-593 209,-593 203,-593 197,-587 197,-581 197,-581 197,-569 197,-569 197,-563 203,-557 209,-557 209,-557 239,-557 239,-557 245,-557 251,-563 251,-569 251,-569 251,-581 251,-581 251,-587 245,-593 239,-593"/>
<text text-anchor="middle" x="224" y="-571.3" font-family="Times New Roman,serif" font-size="14.00">start</text>
</g>
<!-- eof -->
<g id="node3" class="node">
<title>eof</title>
<polygon fill="none" stroke="black" points="224,-520 134,-482 224,-444 314,-482 224,-520"/>
<text text-anchor="middle" x="224" y="-485.8" font-family="Times New Roman,serif" font-size="14.00">Is the Stream</text>
<text text-anchor="middle" x="224" y="-470.8" font-family="Times New Roman,serif" font-size="14.00">Finished?</text>
</g>
<!-- start&#45;&gt;eof -->
<g id="edge1" class="edge">
<title>start&#45;&gt;eof</title>
<path fill="none" stroke="black" d="M224,-556.88C224,-549.64 224,-540.81 224,-531.8"/>
<polygon fill="black" stroke="black" points="227.5,-531.91 224,-521.91 220.5,-531.91 227.5,-531.91"/>
</g>
<!-- end -->
<g id="node2" class="node">
<title>end</title>
<path fill="#eddad5" stroke="black" d="M42,-393C42,-393 12,-393 12,-393 6,-393 0,-387 0,-381 0,-381 0,-369 0,-369 0,-363 6,-357 12,-357 12,-357 42,-357 42,-357 48,-357 54,-363 54,-369 54,-369 54,-381 54,-381 54,-387 48,-393 42,-393"/>
<text text-anchor="middle" x="27" y="-371.3" font-family="Times New Roman,serif" font-size="14.00">end</text>
</g>
<!-- eof&#45;&gt;end -->
<g id="edge3" class="edge">
<title>eof&#45;&gt;end</title>
<path fill="none" stroke="black" d="M185.08,-460.26C150.12,-441.62 99.13,-414.44 64.59,-396.03"/>
<polygon fill="black" stroke="black" points="66.24,-392.95 55.77,-391.33 62.95,-399.12 66.24,-392.95"/>
<text text-anchor="middle" x="129.5" y="-414.8" font-family="Times New Roman,serif" font-size="14.00">yes</text>
</g>
<!-- input -->
<g id="node6" class="node">
<title>input</title>
<polygon fill="none" stroke="black" points="375.53,-393 134.48,-393 72.47,-357 313.52,-357 375.53,-393"/>
<text text-anchor="middle" x="224" y="-371.3" font-family="Times New Roman,serif" font-size="14.00">Read in a single character</text>
</g>
<!-- eof&#45;&gt;input -->
<g id="edge4" class="edge">
<title>eof&#45;&gt;input</title>
<path fill="none" stroke="black" d="M224,-443.69C224,-430.86 224,-416.72 224,-404.69"/>
<polygon fill="black" stroke="black" points="227.5,-405.01 224,-395.01 220.5,-405.01 227.5,-405.01"/>
<text text-anchor="middle" x="231.5" y="-414.8" font-family="Times New Roman,serif" font-size="14.00">no</text>
</g>
<!-- whitespace -->
<g id="node4" class="node">
<title>whitespace</title>
<polygon fill="none" stroke="black" points="318,-320 216,-282 318,-244 420,-282 318,-320"/>
<text text-anchor="middle" x="318" y="-285.8" font-family="Times New Roman,serif" font-size="14.00">Is the character</text>
<text text-anchor="middle" x="318" y="-270.8" font-family="Times New Roman,serif" font-size="14.00"> whitespace?</text>
</g>
<!-- whitespace&#45;&gt;eof -->
<g id="edge6" class="edge">
<title>whitespace&#45;&gt;eof</title>
<path fill="none" stroke="black" d="M350.77,-308.24C375.47,-330.47 402.34,-363.77 385,-393 364.38,-427.76 324.66,-449.68 289.83,-462.95"/>
<polygon fill="black" stroke="black" points="288.84,-459.59 280.62,-466.28 291.22,-466.17 288.84,-459.59"/>
<text text-anchor="middle" x="400.5" y="-371.3" font-family="Times New Roman,serif" font-size="14.00">yes</text>
</g>
<!-- macro -->
<g id="node7" class="node">
<title>macro</title>
<polygon fill="none" stroke="black" points="318,-193 216,-140 318,-87 420,-140 318,-193"/>
<text text-anchor="middle" x="318" y="-151.3" font-family="Times New Roman,serif" font-size="14.00">Is the character</text>
<text text-anchor="middle" x="318" y="-136.3" font-family="Times New Roman,serif" font-size="14.00">bound to a</text>
<text text-anchor="middle" x="318" y="-121.3" font-family="Times New Roman,serif" font-size="14.00">reader macro?</text>
</g>
<!-- whitespace&#45;&gt;macro -->
<g id="edge5" class="edge">
<title>whitespace&#45;&gt;macro</title>
<path fill="none" stroke="black" d="M318,-243.48C318,-231.58 318,-218.07 318,-204.85"/>
<polygon fill="black" stroke="black" points="321.5,-204.87 318,-194.87 314.5,-204.87 321.5,-204.87"/>
<text text-anchor="middle" x="325.5" y="-214.8" font-family="Times New Roman,serif" font-size="14.00">no</text>
</g>
<!-- buildtoken -->
<g id="node5" class="node">
<title>buildtoken</title>
<path fill="none" stroke="black" d="M285,-36C285,-36 219,-36 219,-36 213,-36 207,-30 207,-24 207,-24 207,-12 207,-12 207,-6 213,0 219,0 219,0 285,0 285,0 291,0 297,-6 297,-12 297,-12 297,-24 297,-24 297,-30 291,-36 285,-36"/>
<text text-anchor="middle" x="252" y="-14.3" font-family="Times New Roman,serif" font-size="14.00">Build a token</text>
</g>
<!-- input&#45;&gt;whitespace -->
<g id="edge2" class="edge">
<title>input&#45;&gt;whitespace</title>
<path fill="none" stroke="black" d="M241.68,-356.88C253.06,-345.87 268.26,-331.15 282.1,-317.75"/>
<polygon fill="black" stroke="black" points="284.21,-320.58 288.96,-311.11 279.34,-315.55 284.21,-320.58"/>
</g>
<!-- macro&#45;&gt;buildtoken -->
<g id="edge7" class="edge">
<title>macro&#45;&gt;buildtoken</title>
<path fill="none" stroke="black" d="M295.66,-98.37C286.24,-81.25 275.52,-61.76 267.06,-46.38"/>
<polygon fill="black" stroke="black" points="270.23,-44.87 262.34,-37.8 264.09,-48.25 270.23,-44.87"/>
<text text-anchor="middle" x="287.5" y="-57.8" font-family="Times New Roman,serif" font-size="14.00">no</text>
</g>
<!-- run -->
<g id="node8" class="node">
<title>run</title>
<path fill="none" stroke="black" d="M440.5,-36C440.5,-36 327.5,-36 327.5,-36 321.5,-36 315.5,-30 315.5,-24 315.5,-24 315.5,-12 315.5,-12 315.5,-6 321.5,0 327.5,0 327.5,0 440.5,0 440.5,0 446.5,0 452.5,-6 452.5,-12 452.5,-12 452.5,-24 452.5,-24 452.5,-30 446.5,-36 440.5,-36"/>
<text text-anchor="middle" x="384" y="-14.3" font-family="Times New Roman,serif" font-size="14.00">Run the reader macro</text>
</g>
<!-- macro&#45;&gt;run -->
<g id="edge8" class="edge">
<title>macro&#45;&gt;run</title>
<path fill="none" stroke="black" d="M340.34,-98.37C349.76,-81.25 360.48,-61.76 368.94,-46.38"/>
<polygon fill="black" stroke="black" points="371.91,-48.25 373.66,-37.8 365.77,-44.87 371.91,-48.25"/>
<text text-anchor="middle" x="374.5" y="-57.8" font-family="Times New Roman,serif" font-size="14.00">yes</text>
</g>
</g>
</svg>
