<?xml version="1.0" encoding="UTF-8" standalone="no"?>
<!DOCTYPE svg PUBLIC "-//W3C//DTD SVG 1.1//EN"
 "http://www.w3.org/Graphics/SVG/1.1/DTD/svg11.dtd">
<!-- Generated by graphviz version 7.0.4 (20221203.1631)
 -->
<!-- Pages: 1 -->
<svg width="339pt" height="444pt"
 viewBox="0.00 0.00 338.52 444.00" xmlns="http://www.w3.org/2000/svg" xmlns:xlink="http://www.w3.org/1999/xlink">
<g id="graph0" class="graph" transform="scale(1 1) rotate(0) translate(4 440)">
<polygon fill="white" stroke="none" points="-4,4 -4,-440 334.52,-440 334.52,4 -4,4"/>
<!-- start -->
<g id="node1" class="node">
<title>start</title>
<path fill="#0044ff" fill-opacity="0.133333" stroke="black" d="M166.52,-436C166.52,-436 136.52,-436 136.52,-436 130.52,-436 124.52,-430 124.52,-424 124.52,-424 124.52,-412 124.52,-412 124.52,-406 130.52,-400 136.52,-400 136.52,-400 166.52,-400 166.52,-400 172.52,-400 178.52,-406 178.52,-412 178.52,-412 178.52,-424 178.52,-424 178.52,-430 172.52,-436 166.52,-436"/>
<text text-anchor="middle" x="151.52" y="-414.3" font-family="Times New Roman,serif" font-size="14.00">start</text>
</g>
<!-- input -->
<g id="node6" class="node">
<title>input</title>
<polygon fill="none" stroke="black" points="303.05,-363 61.99,-363 -0.02,-327 241.04,-327 303.05,-363"/>
<text text-anchor="middle" x="151.52" y="-341.3" font-family="Times New Roman,serif" font-size="14.00">Read in a single character</text>
</g>
<!-- start&#45;&gt;input -->
<g id="edge1" class="edge">
<title>start&#45;&gt;input</title>
<path fill="none" stroke="black" d="M151.52,-399.81C151.52,-392.23 151.52,-383.1 151.52,-374.54"/>
<polygon fill="black" stroke="black" points="155.02,-374.54 151.52,-364.54 148.02,-374.54 155.02,-374.54"/>
</g>
<!-- end -->
<g id="node2" class="node">
<title>end</title>
<path fill="#eddad5" stroke="black" d="M275.52,-143C275.52,-143 245.52,-143 245.52,-143 239.52,-143 233.52,-137 233.52,-131 233.52,-131 233.52,-119 233.52,-119 233.52,-113 239.52,-107 245.52,-107 245.52,-107 275.52,-107 275.52,-107 281.52,-107 287.52,-113 287.52,-119 287.52,-119 287.52,-131 287.52,-131 287.52,-137 281.52,-143 275.52,-143"/>
<text text-anchor="middle" x="260.52" y="-121.3" font-family="Times New Roman,serif" font-size="14.00">end</text>
</g>
<!-- eof -->
<g id="node3" class="node">
<title>eof</title>
<polygon fill="none" stroke="black" points="240.52,-290 150.52,-252 240.52,-214 330.52,-252 240.52,-290"/>
<text text-anchor="middle" x="240.52" y="-255.8" font-family="Times New Roman,serif" font-size="14.00">Is the Stream</text>
<text text-anchor="middle" x="240.52" y="-240.8" font-family="Times New Roman,serif" font-size="14.00">Finished?</text>
</g>
<!-- eof&#45;&gt;end -->
<g id="edge3" class="edge">
<title>eof&#45;&gt;end</title>
<path fill="none" stroke="black" d="M246.14,-215.85C249.24,-196.51 253.03,-172.82 255.94,-154.63"/>
<polygon fill="black" stroke="black" points="259.39,-155.22 257.51,-144.79 252.48,-154.11 259.39,-155.22"/>
<text text-anchor="middle" x="261.02" y="-184.8" font-family="Times New Roman,serif" font-size="14.00">yes</text>
</g>
<!-- whitespace -->
<g id="node4" class="node">
<title>whitespace</title>
<polygon fill="none" stroke="black" points="113.52,-163 11.52,-125 113.52,-87 215.52,-125 113.52,-163"/>
<text text-anchor="middle" x="113.52" y="-128.8" font-family="Times New Roman,serif" font-size="14.00">Is the character</text>
<text text-anchor="middle" x="113.52" y="-113.8" font-family="Times New Roman,serif" font-size="14.00"> whitespace?</text>
</g>
<!-- eof&#45;&gt;whitespace -->
<g id="edge4" class="edge">
<title>eof&#45;&gt;whitespace</title>
<path fill="none" stroke="black" d="M213.89,-224.8C195.1,-206.3 169.71,-181.31 149.17,-161.09"/>
<polygon fill="black" stroke="black" points="151.64,-158.61 142.06,-154.09 146.73,-163.6 151.64,-158.61"/>
<text text-anchor="middle" x="192.02" y="-184.8" font-family="Times New Roman,serif" font-size="14.00">no</text>
</g>
<!-- buildtoken -->
<g id="node5" class="node">
<title>buildtoken</title>
<path fill="none" stroke="black" d="M146.52,-36C146.52,-36 80.52,-36 80.52,-36 74.52,-36 68.52,-30 68.52,-24 68.52,-24 68.52,-12 68.52,-12 68.52,-6 74.52,0 80.52,0 80.52,0 146.52,0 146.52,0 152.52,0 158.52,-6 158.52,-12 158.52,-12 158.52,-24 158.52,-24 158.52,-30 152.52,-36 146.52,-36"/>
<text text-anchor="middle" x="113.52" y="-14.3" font-family="Times New Roman,serif" font-size="14.00">Build a token</text>
</g>
<!-- whitespace&#45;&gt;buildtoken -->
<g id="edge5" class="edge">
<title>whitespace&#45;&gt;buildtoken</title>
<path fill="none" stroke="black" d="M113.52,-86.69C113.52,-73.86 113.52,-59.72 113.52,-47.69"/>
<polygon fill="black" stroke="black" points="117.02,-48.01 113.52,-38.01 110.02,-48.01 117.02,-48.01"/>
<text text-anchor="middle" x="121.02" y="-57.8" font-family="Times New Roman,serif" font-size="14.00">no</text>
</g>
<!-- whitespace&#45;&gt;input -->
<g id="edge6" class="edge">
<title>whitespace&#45;&gt;input</title>
<path fill="none" stroke="black" d="M111.03,-162.57C109.79,-196.3 110.57,-247.45 122.52,-290 125.11,-299.22 129.46,-308.63 134.02,-316.96"/>
<polygon fill="black" stroke="black" points="130.95,-318.66 139.02,-325.53 137,-315.13 130.95,-318.66"/>
<text text-anchor="middle" x="132.02" y="-248.3" font-family="Times New Roman,serif" font-size="14.00">yes</text>
</g>
<!-- input&#45;&gt;eof -->
<g id="edge2" class="edge">
<title>input&#45;&gt;eof</title>
<path fill="none" stroke="black" d="M168.26,-326.88C179.1,-315.8 193.6,-300.97 206.77,-287.51"/>
<polygon fill="black" stroke="black" points="209.2,-290.03 213.69,-280.43 204.2,-285.13 209.2,-290.03"/>
</g>
</g>
</svg>
