<?xml version="1.0" encoding="UTF-8" standalone="no"?>
<!DOCTYPE svg PUBLIC "-//W3C//DTD SVG 1.1//EN"
 "http://www.w3.org/Graphics/SVG/1.1/DTD/svg11.dtd">
<!-- Generated by graphviz version 7.0.4 (20221203.1631)
 -->
<!-- Pages: 1 -->
<svg width="514pt" height="615pt"
 viewBox="0.00 0.00 514.00 615.00" xmlns="http://www.w3.org/2000/svg" xmlns:xlink="http://www.w3.org/1999/xlink">
<g id="graph0" class="graph" transform="scale(1 1) rotate(0) translate(4 611)">
<polygon fill="white" stroke="none" points="-4,4 -4,-611 510,-611 510,4 -4,4"/>
<!-- start -->
<g id="node1" class="node">
<title>start</title>
<path fill="#0044ff" fill-opacity="0.133333" stroke="black" d="M239,-607C239,-607 209,-607 209,-607 203,-607 197,-601 197,-595 197,-595 197,-583 197,-583 197,-577 203,-571 209,-571 209,-571 239,-571 239,-571 245,-571 251,-577 251,-583 251,-583 251,-595 251,-595 251,-601 245,-607 239,-607"/>
<text text-anchor="middle" x="224" y="-585.3" font-family="Times New Roman,serif" font-size="14.00">start</text>
</g>
<!-- eof -->
<g id="node3" class="node">
<title>eof</title>
<polygon fill="none" stroke="black" points="224,-534 134,-496 224,-458 314,-496 224,-534"/>
<text text-anchor="middle" x="224" y="-499.8" font-family="Times New Roman,serif" font-size="14.00">Is the Stream</text>
<text text-anchor="middle" x="224" y="-484.8" font-family="Times New Roman,serif" font-size="14.00">Finished?</text>
</g>
<!-- start&#45;&gt;eof -->
<g id="edge1" class="edge">
<title>start&#45;&gt;eof</title>
<path fill="none" stroke="black" d="M224,-570.88C224,-563.64 224,-554.81 224,-545.8"/>
<polygon fill="black" stroke="black" points="227.5,-545.91 224,-535.91 220.5,-545.91 227.5,-545.91"/>
</g>
<!-- end -->
<g id="node2" class="node">
<title>end</title>
<path fill="#eddad5" stroke="black" d="M42,-407C42,-407 12,-407 12,-407 6,-407 0,-401 0,-395 0,-395 0,-383 0,-383 0,-377 6,-371 12,-371 12,-371 42,-371 42,-371 48,-371 54,-377 54,-383 54,-383 54,-395 54,-395 54,-401 48,-407 42,-407"/>
<text text-anchor="middle" x="27" y="-385.3" font-family="Times New Roman,serif" font-size="14.00">end</text>
</g>
<!-- eof&#45;&gt;end -->
<g id="edge3" class="edge">
<title>eof&#45;&gt;end</title>
<path fill="none" stroke="black" d="M185.08,-474.26C150.12,-455.62 99.13,-428.44 64.59,-410.03"/>
<polygon fill="black" stroke="black" points="66.24,-406.95 55.77,-405.33 62.95,-413.12 66.24,-406.95"/>
<text text-anchor="middle" x="129.5" y="-428.8" font-family="Times New Roman,serif" font-size="14.00">yes</text>
</g>
<!-- input -->
<g id="node4" class="node">
<title>input</title>
<polygon fill="none" stroke="black" points="375.53,-407 134.48,-407 72.47,-371 313.52,-371 375.53,-407"/>
<text text-anchor="middle" x="224" y="-385.3" font-family="Times New Roman,serif" font-size="14.00">Read in a single character</text>
</g>
<!-- eof&#45;&gt;input -->
<g id="edge4" class="edge">
<title>eof&#45;&gt;input</title>
<path fill="none" stroke="black" d="M224,-457.69C224,-444.86 224,-430.72 224,-418.69"/>
<polygon fill="black" stroke="black" points="227.5,-419.01 224,-409.01 220.5,-419.01 227.5,-419.01"/>
<text text-anchor="middle" x="231.5" y="-428.8" font-family="Times New Roman,serif" font-size="14.00">no</text>
</g>
<!-- macro -->
<g id="node5" class="node">
<title>macro</title>
<polygon fill="none" stroke="black" points="224,-320 122,-267 224,-214 326,-267 224,-320"/>
<text text-anchor="middle" x="224" y="-278.3" font-family="Times New Roman,serif" font-size="14.00">Is the character</text>
<text text-anchor="middle" x="224" y="-263.3" font-family="Times New Roman,serif" font-size="14.00">bound to a</text>
<text text-anchor="middle" x="224" y="-248.3" font-family="Times New Roman,serif" font-size="14.00">reader macro?</text>
</g>
<!-- input&#45;&gt;macro -->
<g id="edge2" class="edge">
<title>input&#45;&gt;macro</title>
<path fill="none" stroke="black" d="M224,-370.55C224,-360.14 224,-346.2 224,-331.97"/>
<polygon fill="black" stroke="black" points="227.5,-332.07 224,-322.07 220.5,-332.07 227.5,-332.07"/>
</g>
<!-- run -->
<g id="node6" class="node">
<title>run</title>
<path fill="none" stroke="black" d="M271.5,-143C271.5,-143 158.5,-143 158.5,-143 152.5,-143 146.5,-137 146.5,-131 146.5,-131 146.5,-119 146.5,-119 146.5,-113 152.5,-107 158.5,-107 158.5,-107 271.5,-107 271.5,-107 277.5,-107 283.5,-113 283.5,-119 283.5,-119 283.5,-131 283.5,-131 283.5,-137 277.5,-143 271.5,-143"/>
<text text-anchor="middle" x="215" y="-121.3" font-family="Times New Roman,serif" font-size="14.00">Run the reader macro</text>
</g>
<!-- macro&#45;&gt;run -->
<g id="edge6" class="edge">
<title>macro&#45;&gt;run</title>
<path fill="none" stroke="black" d="M220.75,-215.46C219.44,-195.06 217.98,-172.28 216.85,-154.81"/>
<polygon fill="black" stroke="black" points="220.35,-154.66 216.22,-144.91 213.36,-155.11 220.35,-154.66"/>
<text text-anchor="middle" x="229.5" y="-184.8" font-family="Times New Roman,serif" font-size="14.00">yes</text>
</g>
<!-- whitespace -->
<g id="node7" class="node">
<title>whitespace</title>
<polygon fill="none" stroke="black" points="404,-163 302,-125 404,-87 506,-125 404,-163"/>
<text text-anchor="middle" x="404" y="-128.8" font-family="Times New Roman,serif" font-size="14.00">Is the character</text>
<text text-anchor="middle" x="404" y="-113.8" font-family="Times New Roman,serif" font-size="14.00"> whitespace?</text>
</g>
<!-- macro&#45;&gt;whitespace -->
<g id="edge5" class="edge">
<title>macro&#45;&gt;whitespace</title>
<path fill="none" stroke="black" d="M264.4,-234.58C293.7,-211.79 333.22,-181.05 362.73,-158.1"/>
<polygon fill="black" stroke="black" points="364.6,-161.08 370.35,-152.18 360.3,-155.55 364.6,-161.08"/>
<text text-anchor="middle" x="338.5" y="-184.8" font-family="Times New Roman,serif" font-size="14.00">no</text>
</g>
<!-- whitespace&#45;&gt;eof -->
<g id="edge8" class="edge">
<title>whitespace&#45;&gt;eof</title>
<path fill="none" stroke="black" d="M411.51,-160.35C421.83,-216.76 434,-330.39 385,-407 363.15,-441.17 323.2,-463.12 288.57,-476.55"/>
<polygon fill="black" stroke="black" points="287.61,-473.17 279.44,-479.92 290.03,-479.74 287.61,-473.17"/>
<text text-anchor="middle" x="422.5" y="-341.8" font-family="Times New Roman,serif" font-size="14.00">yes</text>
</g>
<!-- buildtoken -->
<g id="node8" class="node">
<title>buildtoken</title>
<path fill="none" stroke="black" d="M437,-36C437,-36 371,-36 371,-36 365,-36 359,-30 359,-24 359,-24 359,-12 359,-12 359,-6 365,0 371,0 371,0 437,0 437,0 443,0 449,-6 449,-12 449,-12 449,-24 449,-24 449,-30 443,-36 437,-36"/>
<text text-anchor="middle" x="404" y="-14.3" font-family="Times New Roman,serif" font-size="14.00">Build a token</text>
</g>
<!-- whitespace&#45;&gt;buildtoken -->
<g id="edge7" class="edge">
<title>whitespace&#45;&gt;buildtoken</title>
<path fill="none" stroke="black" d="M404,-86.69C404,-73.86 404,-59.72 404,-47.69"/>
<polygon fill="black" stroke="black" points="407.5,-48.01 404,-38.01 400.5,-48.01 407.5,-48.01"/>
<text text-anchor="middle" x="411.5" y="-57.8" font-family="Times New Roman,serif" font-size="14.00">no</text>
</g>
</g>
</svg>
