<?xml version="1.0" encoding="UTF-8" standalone="no"?>
<!DOCTYPE svg PUBLIC "-//W3C//DTD SVG 1.1//EN"
 "http://www.w3.org/Graphics/SVG/1.1/DTD/svg11.dtd">
<!-- Generated by graphviz version 7.0.4 (20221203.1631)
 -->
<!-- Pages: 1 -->
<svg width="365pt" height="601pt"
 viewBox="0.00 0.00 364.52 601.00" xmlns="http://www.w3.org/2000/svg" xmlns:xlink="http://www.w3.org/1999/xlink">
<g id="graph0" class="graph" transform="scale(1 1) rotate(0) translate(4 597)">
<polygon fill="white" stroke="none" points="-4,4 -4,-597 360.52,-597 360.52,4 -4,4"/>
<!-- start -->
<g id="node1" class="node">
<title>start</title>
<path fill="#0044ff" fill-opacity="0.133333" stroke="black" d="M166.52,-593C166.52,-593 136.52,-593 136.52,-593 130.52,-593 124.52,-587 124.52,-581 124.52,-581 124.52,-569 124.52,-569 124.52,-563 130.52,-557 136.52,-557 136.52,-557 166.52,-557 166.52,-557 172.52,-557 178.52,-563 178.52,-569 178.52,-569 178.52,-581 178.52,-581 178.52,-587 172.52,-593 166.52,-593"/>
<text text-anchor="middle" x="151.52" y="-571.3" font-family="Times New Roman,serif" font-size="14.00">start</text>
</g>
<!-- input -->
<g id="node6" class="node">
<title>input</title>
<polygon fill="none" stroke="black" points="303.05,-520 61.99,-520 -0.02,-484 241.04,-484 303.05,-520"/>
<text text-anchor="middle" x="151.52" y="-498.3" font-family="Times New Roman,serif" font-size="14.00">Read in a single character</text>
</g>
<!-- start&#45;&gt;input -->
<g id="edge1" class="edge">
<title>start&#45;&gt;input</title>
<path fill="none" stroke="black" d="M151.52,-556.81C151.52,-549.23 151.52,-540.1 151.52,-531.54"/>
<polygon fill="black" stroke="black" points="155.02,-531.54 151.52,-521.54 148.02,-531.54 155.02,-531.54"/>
</g>
<!-- end -->
<g id="node2" class="node">
<title>end</title>
<path fill="#eddad5" stroke="black" d="M301.52,-300C301.52,-300 271.52,-300 271.52,-300 265.52,-300 259.52,-294 259.52,-288 259.52,-288 259.52,-276 259.52,-276 259.52,-270 265.52,-264 271.52,-264 271.52,-264 301.52,-264 301.52,-264 307.52,-264 313.52,-270 313.52,-276 313.52,-276 313.52,-288 313.52,-288 313.52,-294 307.52,-300 301.52,-300"/>
<text text-anchor="middle" x="286.52" y="-278.3" font-family="Times New Roman,serif" font-size="14.00">end</text>
</g>
<!-- eof -->
<g id="node3" class="node">
<title>eof</title>
<polygon fill="none" stroke="black" points="266.52,-447 176.52,-409 266.52,-371 356.52,-409 266.52,-447"/>
<text text-anchor="middle" x="266.52" y="-412.8" font-family="Times New Roman,serif" font-size="14.00">Is the Stream</text>
<text text-anchor="middle" x="266.52" y="-397.8" font-family="Times New Roman,serif" font-size="14.00">Finished?</text>
</g>
<!-- eof&#45;&gt;end -->
<g id="edge3" class="edge">
<title>eof&#45;&gt;end</title>
<path fill="none" stroke="black" d="M272.14,-372.85C275.24,-353.51 279.03,-329.82 281.94,-311.63"/>
<polygon fill="black" stroke="black" points="285.39,-312.22 283.51,-301.79 278.48,-311.11 285.39,-312.22"/>
<text text-anchor="middle" x="287.02" y="-341.8" font-family="Times New Roman,serif" font-size="14.00">yes</text>
</g>
<!-- whitespace -->
<g id="node4" class="node">
<title>whitespace</title>
<polygon fill="none" stroke="black" points="139.52,-320 37.52,-282 139.52,-244 241.52,-282 139.52,-320"/>
<text text-anchor="middle" x="139.52" y="-285.8" font-family="Times New Roman,serif" font-size="14.00">Is the character</text>
<text text-anchor="middle" x="139.52" y="-270.8" font-family="Times New Roman,serif" font-size="14.00"> whitespace?</text>
</g>
<!-- eof&#45;&gt;whitespace -->
<g id="edge4" class="edge">
<title>eof&#45;&gt;whitespace</title>
<path fill="none" stroke="black" d="M239.89,-381.8C221.1,-363.3 195.71,-338.31 175.17,-318.09"/>
<polygon fill="black" stroke="black" points="177.64,-315.61 168.06,-311.09 172.73,-320.6 177.64,-315.61"/>
<text text-anchor="middle" x="219.02" y="-341.8" font-family="Times New Roman,serif" font-size="14.00">no</text>
</g>
<!-- whitespace&#45;&gt;input -->
<g id="edge6" class="edge">
<title>whitespace&#45;&gt;input</title>
<path fill="none" stroke="black" d="M141.51,-319.48C143.33,-352.71 146.1,-403.15 148.52,-447 148.98,-455.31 149.48,-464.35 149.94,-472.61"/>
<polygon fill="black" stroke="black" points="146.43,-472.67 150.48,-482.46 153.42,-472.29 146.43,-472.67"/>
<text text-anchor="middle" x="158.02" y="-405.3" font-family="Times New Roman,serif" font-size="14.00">yes</text>
</g>
<!-- macro -->
<g id="node7" class="node">
<title>macro</title>
<polygon fill="none" stroke="black" points="139.52,-193 37.52,-140 139.52,-87 241.52,-140 139.52,-193"/>
<text text-anchor="middle" x="139.52" y="-151.3" font-family="Times New Roman,serif" font-size="14.00">Is the character</text>
<text text-anchor="middle" x="139.52" y="-136.3" font-family="Times New Roman,serif" font-size="14.00">bound to a</text>
<text text-anchor="middle" x="139.52" y="-121.3" font-family="Times New Roman,serif" font-size="14.00">reader macro?</text>
</g>
<!-- whitespace&#45;&gt;macro -->
<g id="edge5" class="edge">
<title>whitespace&#45;&gt;macro</title>
<path fill="none" stroke="black" d="M139.52,-243.48C139.52,-231.58 139.52,-218.07 139.52,-204.85"/>
<polygon fill="black" stroke="black" points="143.02,-204.87 139.52,-194.87 136.02,-204.87 143.02,-204.87"/>
<text text-anchor="middle" x="147.02" y="-214.8" font-family="Times New Roman,serif" font-size="14.00">no</text>
</g>
<!-- buildtoken -->
<g id="node5" class="node">
<title>buildtoken</title>
<path fill="none" stroke="black" d="M106.52,-36C106.52,-36 40.52,-36 40.52,-36 34.52,-36 28.52,-30 28.52,-24 28.52,-24 28.52,-12 28.52,-12 28.52,-6 34.52,0 40.52,0 40.52,0 106.52,0 106.52,0 112.52,0 118.52,-6 118.52,-12 118.52,-12 118.52,-24 118.52,-24 118.52,-30 112.52,-36 106.52,-36"/>
<text text-anchor="middle" x="73.52" y="-14.3" font-family="Times New Roman,serif" font-size="14.00">Build a token</text>
</g>
<!-- input&#45;&gt;eof -->
<g id="edge2" class="edge">
<title>input&#45;&gt;eof</title>
<path fill="none" stroke="black" d="M173.42,-483.67C188.65,-471.62 209.38,-455.21 227.41,-440.94"/>
<polygon fill="black" stroke="black" points="229.15,-444.03 234.82,-435.08 224.81,-438.54 229.15,-444.03"/>
</g>
<!-- macro&#45;&gt;buildtoken -->
<g id="edge7" class="edge">
<title>macro&#45;&gt;buildtoken</title>
<path fill="none" stroke="black" d="M117.17,-98.37C107.75,-81.25 97.04,-61.76 88.58,-46.38"/>
<polygon fill="black" stroke="black" points="91.74,-44.87 83.86,-37.8 85.61,-48.25 91.74,-44.87"/>
<text text-anchor="middle" x="109.02" y="-57.8" font-family="Times New Roman,serif" font-size="14.00">no</text>
</g>
<!-- run -->
<g id="node8" class="node">
<title>run</title>
<path fill="none" stroke="black" d="M262.02,-36C262.02,-36 149.02,-36 149.02,-36 143.02,-36 137.02,-30 137.02,-24 137.02,-24 137.02,-12 137.02,-12 137.02,-6 143.02,0 149.02,0 149.02,0 262.02,0 262.02,0 268.02,0 274.02,-6 274.02,-12 274.02,-12 274.02,-24 274.02,-24 274.02,-30 268.02,-36 262.02,-36"/>
<text text-anchor="middle" x="205.52" y="-14.3" font-family="Times New Roman,serif" font-size="14.00">Run the reader macro</text>
</g>
<!-- macro&#45;&gt;run -->
<g id="edge8" class="edge">
<title>macro&#45;&gt;run</title>
<path fill="none" stroke="black" d="M161.86,-98.37C171.28,-81.25 182,-61.76 190.46,-46.38"/>
<polygon fill="black" stroke="black" points="193.43,-48.25 195.18,-37.8 187.29,-44.87 193.43,-48.25"/>
<text text-anchor="middle" x="196.02" y="-57.8" font-family="Times New Roman,serif" font-size="14.00">yes</text>
</g>
</g>
</svg>
