<?xml version="1.0" encoding="UTF-8" standalone="no"?>
<!DOCTYPE svg PUBLIC "-//W3C//DTD SVG 1.1//EN"
 "http://www.w3.org/Graphics/SVG/1.1/DTD/svg11.dtd">
<!-- Generated by graphviz version 7.0.4 (20221203.1631)
 -->
<!-- Pages: 1 -->
<svg width="428pt" height="444pt"
 viewBox="0.00 0.00 428.00 444.00" xmlns="http://www.w3.org/2000/svg" xmlns:xlink="http://www.w3.org/1999/xlink">
<g id="graph0" class="graph" transform="scale(1 1) rotate(0) translate(4 440)">
<polygon fill="white" stroke="none" points="-4,4 -4,-440 424,-440 424,4 -4,4"/>
<!-- start -->
<g id="node1" class="node">
<title>start</title>
<path fill="#0044ff" fill-opacity="0.133333" stroke="black" d="M239,-436C239,-436 209,-436 209,-436 203,-436 197,-430 197,-424 197,-424 197,-412 197,-412 197,-406 203,-400 209,-400 209,-400 239,-400 239,-400 245,-400 251,-406 251,-412 251,-412 251,-424 251,-424 251,-430 245,-436 239,-436"/>
<text text-anchor="middle" x="224" y="-414.3" font-family="Times New Roman,serif" font-size="14.00">start</text>
</g>
<!-- eof -->
<g id="node3" class="node">
<title>eof</title>
<polygon fill="none" stroke="black" points="224,-363 134,-325 224,-287 314,-325 224,-363"/>
<text text-anchor="middle" x="224" y="-328.8" font-family="Times New Roman,serif" font-size="14.00">Is the Stream</text>
<text text-anchor="middle" x="224" y="-313.8" font-family="Times New Roman,serif" font-size="14.00">Finished?</text>
</g>
<!-- start&#45;&gt;eof -->
<g id="edge1" class="edge">
<title>start&#45;&gt;eof</title>
<path fill="none" stroke="black" d="M224,-399.88C224,-392.64 224,-383.81 224,-374.8"/>
<polygon fill="black" stroke="black" points="227.5,-374.91 224,-364.91 220.5,-374.91 227.5,-374.91"/>
</g>
<!-- end -->
<g id="node2" class="node">
<title>end</title>
<path fill="#eddad5" stroke="black" d="M42,-236C42,-236 12,-236 12,-236 6,-236 0,-230 0,-224 0,-224 0,-212 0,-212 0,-206 6,-200 12,-200 12,-200 42,-200 42,-200 48,-200 54,-206 54,-212 54,-212 54,-224 54,-224 54,-230 48,-236 42,-236"/>
<text text-anchor="middle" x="27" y="-214.3" font-family="Times New Roman,serif" font-size="14.00">end</text>
</g>
<!-- eof&#45;&gt;end -->
<g id="edge2" class="edge">
<title>eof&#45;&gt;end</title>
<path fill="none" stroke="black" d="M185.08,-303.26C150.12,-284.62 99.13,-257.44 64.59,-239.03"/>
<polygon fill="black" stroke="black" points="66.24,-235.95 55.77,-234.33 62.95,-242.12 66.24,-235.95"/>
<text text-anchor="middle" x="129.5" y="-257.8" font-family="Times New Roman,serif" font-size="14.00">yes</text>
</g>
<!-- input -->
<g id="node6" class="node">
<title>input</title>
<polygon fill="none" stroke="black" points="375.53,-236 134.48,-236 72.47,-200 313.52,-200 375.53,-236"/>
<text text-anchor="middle" x="224" y="-214.3" font-family="Times New Roman,serif" font-size="14.00">Read in a single character</text>
</g>
<!-- eof&#45;&gt;input -->
<g id="edge3" class="edge">
<title>eof&#45;&gt;input</title>
<path fill="none" stroke="black" d="M224,-286.69C224,-273.86 224,-259.72 224,-247.69"/>
<polygon fill="black" stroke="black" points="227.5,-248.01 224,-238.01 220.5,-248.01 227.5,-248.01"/>
<text text-anchor="middle" x="231.5" y="-257.8" font-family="Times New Roman,serif" font-size="14.00">no</text>
</g>
<!-- whitespace -->
<g id="node4" class="node">
<title>whitespace</title>
<polygon fill="none" stroke="black" points="318,-163 216,-125 318,-87 420,-125 318,-163"/>
<text text-anchor="middle" x="318" y="-128.8" font-family="Times New Roman,serif" font-size="14.00">Is the character</text>
<text text-anchor="middle" x="318" y="-113.8" font-family="Times New Roman,serif" font-size="14.00"> whitespace?</text>
</g>
<!-- whitespace&#45;&gt;eof -->
<g id="edge6" class="edge">
<title>whitespace&#45;&gt;eof</title>
<path fill="none" stroke="black" d="M350.77,-151.24C375.47,-173.47 402.34,-206.77 385,-236 364.38,-270.76 324.66,-292.68 289.83,-305.95"/>
<polygon fill="black" stroke="black" points="288.84,-302.59 280.62,-309.28 291.22,-309.17 288.84,-302.59"/>
<text text-anchor="middle" x="400.5" y="-214.3" font-family="Times New Roman,serif" font-size="14.00">yes</text>
</g>
<!-- buildtoken -->
<g id="node5" class="node">
<title>buildtoken</title>
<path fill="none" stroke="black" d="M351,-36C351,-36 285,-36 285,-36 279,-36 273,-30 273,-24 273,-24 273,-12 273,-12 273,-6 279,0 285,0 285,0 351,0 351,0 357,0 363,-6 363,-12 363,-12 363,-24 363,-24 363,-30 357,-36 351,-36"/>
<text text-anchor="middle" x="318" y="-14.3" font-family="Times New Roman,serif" font-size="14.00">Build a token</text>
</g>
<!-- whitespace&#45;&gt;buildtoken -->
<g id="edge5" class="edge">
<title>whitespace&#45;&gt;buildtoken</title>
<path fill="none" stroke="black" d="M318,-86.69C318,-73.86 318,-59.72 318,-47.69"/>
<polygon fill="black" stroke="black" points="321.5,-48.01 318,-38.01 314.5,-48.01 321.5,-48.01"/>
<text text-anchor="middle" x="325.5" y="-57.8" font-family="Times New Roman,serif" font-size="14.00">no</text>
</g>
<!-- input&#45;&gt;whitespace -->
<g id="edge4" class="edge">
<title>input&#45;&gt;whitespace</title>
<path fill="none" stroke="black" d="M241.68,-199.88C253.06,-188.87 268.26,-174.15 282.1,-160.75"/>
<polygon fill="black" stroke="black" points="284.21,-163.58 288.96,-154.11 279.34,-158.55 284.21,-163.58"/>
</g>
</g>
</svg>
