<?xml version="1.0" encoding="UTF-8" standalone="no"?><svg xmlns="http://www.w3.org/2000/svg" xmlns:xlink="http://www.w3.org/1999/xlink" contentScriptType="application/ecmascript" contentStyleType="text/css" height="307px" preserveAspectRatio="none" style="width:313px;height:307px;" version="1.1" viewBox="0 0 313 307" width="313px" zoomAndPan="magnify"><defs><filter height="300%" id="f168yzbq3r9919" width="300%" x="-1" y="-1"><feGaussianBlur result="blurOut" stdDeviation="2.0"/><feColorMatrix in="blurOut" result="blurOut2" type="matrix" values="0 0 0 0 0 0 0 0 0 0 0 0 0 0 0 0 0 0 .4 0"/><feOffset dx="4.0" dy="4.0" in="blurOut2" result="blurOut3"/><feBlend in="SourceGraphic" in2="blurOut3" mode="normal"/></filter></defs><g><!--MD5=[0ab5e50cb7c4d5dbbc1bea50a8b4b262]
cluster Front End--><polygon fill="#FFFFFF" filter="url(#f168yzbq3r9919)" points="22,24,104,24,111,46.2969,291,46.2969,291,295,22,295,22,24" style="stroke: #000000; stroke-width: 1.5;"/><line style="stroke: #000000; stroke-width: 1.5;" x1="22" x2="111" y1="46.2969" y2="46.2969"/><text fill="#000000" font-family="sans-serif" font-size="14" font-weight="bold" lengthAdjust="spacingAndGlyphs" textLength="76" x="26" y="38.9951">Front End</text><!--MD5=[d8c8cfd5ca149094f5b67f9f607a5ec7]
class Token--><rect fill="#FEFECE" filter="url(#f168yzbq3r9919)" height="48" id="Token" style="stroke: #A80036; stroke-width: 1.5;" width="70" x="205" y="72"/><ellipse cx="220" cy="88" fill="#ADD1B2" rx="11" ry="11" style="stroke: #A80036; stroke-width: 1.0;"/><path d="M222.9688,93.6406 Q222.3906,93.9375 221.75,94.0781 Q221.1094,94.2344 220.4063,94.2344 Q217.9063,94.2344 216.5781,92.5938 Q215.2656,90.9375 215.2656,87.8125 Q215.2656,84.6875 216.5781,83.0313 Q217.9063,81.375 220.4063,81.375 Q221.1094,81.375 221.75,81.5313 Q222.4063,81.6875 222.9688,81.9844 L222.9688,84.7031 Q222.3438,84.125 221.75,83.8594 Q221.1563,83.5781 220.5313,83.5781 Q219.1875,83.5781 218.5,84.6563 Q217.8125,85.7188 217.8125,87.8125 Q217.8125,89.9063 218.5,90.9844 Q219.1875,92.0469 220.5313,92.0469 Q221.1563,92.0469 221.75,91.7813 Q222.3438,91.5 222.9688,90.9219 L222.9688,93.6406 Z "/><text fill="#000000" font-family="sans-serif" font-size="12" lengthAdjust="spacingAndGlyphs" textLength="38" x="234" y="92.1543">Token</text><line style="stroke: #A80036; stroke-width: 1.5;" x1="206" x2="274" y1="104" y2="104"/><line style="stroke: #A80036; stroke-width: 1.5;" x1="206" x2="274" y1="112" y2="112"/><!--MD5=[d5f1be826c69ca1567a5e96185ac7827]
class Scanner--><rect fill="#FEFECE" filter="url(#f168yzbq3r9919)" height="86.4141" id="Scanner" style="stroke: #A80036; stroke-width: 1.5;" width="147" x="38.5" y="193"/><ellipse cx="81.85" cy="209" fill="#ADD1B2" rx="11" ry="11" style="stroke: #A80036; stroke-width: 1.0;"/><path d="M84.8188,214.6406 Q84.2406,214.9375 83.6,215.0781 Q82.9594,215.2344 82.2563,215.2344 Q79.7563,215.2344 78.4281,213.5938 Q77.1156,211.9375 77.1156,208.8125 Q77.1156,205.6875 78.4281,204.0313 Q79.7563,202.375 82.2563,202.375 Q82.9594,202.375 83.6,202.5313 Q84.2563,202.6875 84.8188,202.9844 L84.8188,205.7031 Q84.1938,205.125 83.6,204.8594 Q83.0063,204.5781 82.3813,204.5781 Q81.0375,204.5781 80.35,205.6563 Q79.6625,206.7188 79.6625,208.8125 Q79.6625,210.9063 80.35,211.9844 Q81.0375,213.0469 82.3813,213.0469 Q83.0063,213.0469 83.6,212.7813 Q84.1938,212.5 84.8188,211.9219 L84.8188,214.6406 Z "/><text fill="#000000" font-family="sans-serif" font-size="12" lengthAdjust="spacingAndGlyphs" textLength="52" x="102.15" y="213.1543">Scanner</text><line style="stroke: #A80036; stroke-width: 1.5;" x1="39.5" x2="184.5" y1="225" y2="225"/><rect fill="none" height="6" style="stroke: #C82930; stroke-width: 1.0;" width="6" x="46.5" y="233"/><text fill="#000000" font-family="sans-serif" font-size="11" lengthAdjust="spacingAndGlyphs" textLength="121" x="58.5" y="239.2104">source : InputStream</text><line style="stroke: #A80036; stroke-width: 1.5;" x1="39.5" x2="184.5" y1="245.8047" y2="245.8047"/><ellipse cx="49.5" cy="256.8047" fill="#84BE84" rx="3" ry="3" style="stroke: #038048; stroke-width: 1.0;"/><text fill="#000000" font-family="sans-serif" font-size="11" lengthAdjust="spacingAndGlyphs" textLength="90" x="58.5" y="260.0151">hasNext() : bool</text><ellipse cx="49.5" cy="269.6094" fill="#84BE84" rx="3" ry="3" style="stroke: #038048; stroke-width: 1.0;"/><text fill="#000000" font-family="sans-serif" font-size="11" lengthAdjust="spacingAndGlyphs" textLength="112" x="58.5" y="272.8198">nextToken() : Token</text><!--MD5=[628cc5a2753cca06eb1ffef55c386535]
class Parser--><rect fill="#FEFECE" filter="url(#f168yzbq3r9919)" height="73.6094" id="Parser" style="stroke: #A80036; stroke-width: 1.5;" width="131" x="38.5" y="59"/><ellipse cx="79.6" cy="75" fill="#ADD1B2" rx="11" ry="11" style="stroke: #A80036; stroke-width: 1.0;"/><path d="M82.5688,80.6406 Q81.9906,80.9375 81.35,81.0781 Q80.7094,81.2344 80.0063,81.2344 Q77.5063,81.2344 76.1781,79.5938 Q74.8656,77.9375 74.8656,74.8125 Q74.8656,71.6875 76.1781,70.0313 Q77.5063,68.375 80.0063,68.375 Q80.7094,68.375 81.35,68.5313 Q82.0063,68.6875 82.5688,68.9844 L82.5688,71.7031 Q81.9438,71.125 81.35,70.8594 Q80.7563,70.5781 80.1313,70.5781 Q78.7875,70.5781 78.1,71.6563 Q77.4125,72.7188 77.4125,74.8125 Q77.4125,76.9063 78.1,77.9844 Q78.7875,79.0469 80.1313,79.0469 Q80.7563,79.0469 81.35,78.7813 Q81.9438,78.5 82.5688,77.9219 L82.5688,80.6406 Z "/><text fill="#000000" font-family="sans-serif" font-size="12" lengthAdjust="spacingAndGlyphs" textLength="41" x="99.4" y="79.1543">Parser</text><line style="stroke: #A80036; stroke-width: 1.5;" x1="39.5" x2="168.5" y1="91" y2="91"/><rect fill="none" height="6" style="stroke: #C82930; stroke-width: 1.0;" width="6" x="46.5" y="99"/><text fill="#000000" font-family="sans-serif" font-size="11" lengthAdjust="spacingAndGlyphs" textLength="105" x="58.5" y="105.2104">scanner : Scanner</text><line style="stroke: #A80036; stroke-width: 1.5;" x1="39.5" x2="168.5" y1="111.8047" y2="111.8047"/><ellipse cx="49.5" cy="122.8047" fill="#84BE84" rx="3" ry="3" style="stroke: #038048; stroke-width: 1.0;"/><text fill="#000000" font-family="sans-serif" font-size="11" lengthAdjust="spacingAndGlyphs" textLength="81" x="58.5" y="126.0151">parse() : SExp</text><!--MD5=[eb8b2e37378f2f7bdf30e6530098080c]
reverse link Parser to Scanner--><path d="M106.88,146.62 C107.75,161.68 108.7,178.08 109.54,192.62 " fill="none" id="Parser&lt;-Scanner" style="stroke: #A80036; stroke-width: 1.0;"/><polygon fill="#A80036" points="106.1,133.26,102.456,139.4827,106.7985,145.2397,110.4425,139.017,106.1,133.26" style="stroke: #A80036; stroke-width: 1.0;"/><!--MD5=[566c72532e99ef5ed97943b9952cc8e9]
@startuml

package "Front End" {
  class Token

  class Scanner {
  - source : InputStream
  + hasNext() : bool
  + nextToken() : Token
  }

  class Parser {
  - scanner : Scanner
  + parse() : SExp
  }

  Parser *- - Scanner
}

@enduml

PlantUML version 1.2020.02(Sun Mar 01 02:22:07 PST 2020)
(GPL source distribution)
Java Runtime: OpenJDK Runtime Environment
JVM: OpenJDK 64-Bit Server VM
Java Version: 11.0.10+9-Ubuntu-0ubuntu1.20.10
Operating System: Linux
Default Encoding: UTF-8
Language: en
Country: US
--></g></svg>