<?xml version="1.0" encoding="UTF-8" standalone="no"?>
<!DOCTYPE svg PUBLIC "-//W3C//DTD SVG 1.1//EN"
 "http://www.w3.org/Graphics/SVG/1.1/DTD/svg11.dtd">
<!-- Generated by graphviz version 7.0.4 (20221203.1631)
 -->
<!-- Pages: 1 -->
<svg width="414pt" height="601pt"
 viewBox="0.00 0.00 414.00 601.00" xmlns="http://www.w3.org/2000/svg" xmlns:xlink="http://www.w3.org/1999/xlink">
<g id="graph0" class="graph" transform="scale(1 1) rotate(0) translate(4 597)">
<polygon fill="white" stroke="none" points="-4,4 -4,-597 410,-597 410,4 -4,4"/>
<!-- start -->
<g id="node1" class="node">
<title>start</title>
<path fill="#0044ff" fill-opacity="0.133333" stroke="black" d="M254,-593C254,-593 224,-593 224,-593 218,-593 212,-587 212,-581 212,-581 212,-569 212,-569 212,-563 218,-557 224,-557 224,-557 254,-557 254,-557 260,-557 266,-563 266,-569 266,-569 266,-581 266,-581 266,-587 260,-593 254,-593"/>
<text text-anchor="middle" x="239" y="-571.3" font-family="Times New Roman,serif" font-size="14.00">start</text>
</g>
<!-- input -->
<g id="node4" class="node">
<title>input</title>
<polygon fill="none" stroke="black" points="390.53,-520 149.48,-520 87.47,-484 328.52,-484 390.53,-520"/>
<text text-anchor="middle" x="239" y="-498.3" font-family="Times New Roman,serif" font-size="14.00">Read in a single character</text>
</g>
<!-- start&#45;&gt;input -->
<g id="edge1" class="edge">
<title>start&#45;&gt;input</title>
<path fill="none" stroke="black" d="M239,-556.81C239,-549.23 239,-540.1 239,-531.54"/>
<polygon fill="black" stroke="black" points="242.5,-531.54 239,-521.54 235.5,-531.54 242.5,-531.54"/>
</g>
<!-- end -->
<g id="node2" class="node">
<title>end</title>
<path fill="#eddad5" stroke="black" d="M42,-285C42,-285 12,-285 12,-285 6,-285 0,-279 0,-273 0,-273 0,-261 0,-261 0,-255 6,-249 12,-249 12,-249 42,-249 42,-249 48,-249 54,-255 54,-261 54,-261 54,-273 54,-273 54,-279 48,-285 42,-285"/>
<text text-anchor="middle" x="27" y="-263.3" font-family="Times New Roman,serif" font-size="14.00">end</text>
</g>
<!-- eof -->
<g id="node3" class="node">
<title>eof</title>
<polygon fill="none" stroke="black" points="174,-447 84,-409 174,-371 264,-409 174,-447"/>
<text text-anchor="middle" x="174" y="-412.8" font-family="Times New Roman,serif" font-size="14.00">Is the Stream</text>
<text text-anchor="middle" x="174" y="-397.8" font-family="Times New Roman,serif" font-size="14.00">Finished?</text>
</g>
<!-- eof&#45;&gt;end -->
<g id="edge3" class="edge">
<title>eof&#45;&gt;end</title>
<path fill="none" stroke="black" d="M139.78,-384.93C116.65,-368.4 86.21,-344.76 63,-320 55.88,-312.4 49.09,-303.29 43.37,-294.83"/>
<polygon fill="black" stroke="black" points="46.4,-293.08 38.01,-286.61 40.53,-296.9 46.4,-293.08"/>
<text text-anchor="middle" x="107.5" y="-341.8" font-family="Times New Roman,serif" font-size="14.00">yes</text>
</g>
<!-- macro -->
<g id="node5" class="node">
<title>macro</title>
<polygon fill="none" stroke="black" points="174,-320 72,-267 174,-214 276,-267 174,-320"/>
<text text-anchor="middle" x="174" y="-278.3" font-family="Times New Roman,serif" font-size="14.00">Is the character</text>
<text text-anchor="middle" x="174" y="-263.3" font-family="Times New Roman,serif" font-size="14.00">bound to a</text>
<text text-anchor="middle" x="174" y="-248.3" font-family="Times New Roman,serif" font-size="14.00">reader macro?</text>
</g>
<!-- eof&#45;&gt;macro -->
<g id="edge4" class="edge">
<title>eof&#45;&gt;macro</title>
<path fill="none" stroke="black" d="M174,-370.48C174,-358.58 174,-345.07 174,-331.85"/>
<polygon fill="black" stroke="black" points="177.5,-331.87 174,-321.87 170.5,-331.87 177.5,-331.87"/>
<text text-anchor="middle" x="181.5" y="-341.8" font-family="Times New Roman,serif" font-size="14.00">no</text>
</g>
<!-- input&#45;&gt;eof -->
<g id="edge2" class="edge">
<title>input&#45;&gt;eof</title>
<path fill="none" stroke="black" d="M226.77,-483.88C219.51,-473.71 209.99,-460.38 201.04,-447.85"/>
<polygon fill="black" stroke="black" points="203.89,-445.82 195.23,-439.72 198.19,-449.89 203.89,-445.82"/>
</g>
<!-- run -->
<g id="node6" class="node">
<title>run</title>
<path fill="none" stroke="black" d="M171.5,-143C171.5,-143 58.5,-143 58.5,-143 52.5,-143 46.5,-137 46.5,-131 46.5,-131 46.5,-119 46.5,-119 46.5,-113 52.5,-107 58.5,-107 58.5,-107 171.5,-107 171.5,-107 177.5,-107 183.5,-113 183.5,-119 183.5,-119 183.5,-131 183.5,-131 183.5,-137 177.5,-143 171.5,-143"/>
<text text-anchor="middle" x="115" y="-121.3" font-family="Times New Roman,serif" font-size="14.00">Run the reader macro</text>
</g>
<!-- macro&#45;&gt;run -->
<g id="edge6" class="edge">
<title>macro&#45;&gt;run</title>
<path fill="none" stroke="black" d="M155.98,-223.23C146.47,-200.68 135.08,-173.65 126.73,-153.82"/>
<polygon fill="black" stroke="black" points="130.01,-152.6 122.9,-144.74 123.56,-155.32 130.01,-152.6"/>
<text text-anchor="middle" x="154.5" y="-184.8" font-family="Times New Roman,serif" font-size="14.00">yes</text>
</g>
<!-- whitespace -->
<g id="node7" class="node">
<title>whitespace</title>
<polygon fill="none" stroke="black" points="304,-163 202,-125 304,-87 406,-125 304,-163"/>
<text text-anchor="middle" x="304" y="-128.8" font-family="Times New Roman,serif" font-size="14.00">Is the character</text>
<text text-anchor="middle" x="304" y="-113.8" font-family="Times New Roman,serif" font-size="14.00"> whitespace?</text>
</g>
<!-- macro&#45;&gt;whitespace -->
<g id="edge5" class="edge">
<title>macro&#45;&gt;whitespace</title>
<path fill="none" stroke="black" d="M206.8,-230.67C226.24,-209.74 250.81,-183.28 270.39,-162.19"/>
<polygon fill="black" stroke="black" points="272.9,-164.64 277.14,-154.93 267.77,-159.87 272.9,-164.64"/>
<text text-anchor="middle" x="258.5" y="-184.8" font-family="Times New Roman,serif" font-size="14.00">no</text>
</g>
<!-- whitespace&#45;&gt;input -->
<g id="edge8" class="edge">
<title>whitespace&#45;&gt;input</title>
<path fill="none" stroke="black" d="M305.86,-162.77C307.77,-223.65 306.66,-348.45 273,-447 269.79,-456.39 264.67,-465.82 259.36,-474.11"/>
<polygon fill="black" stroke="black" points="256.5,-472.1 253.76,-482.34 262.28,-476.04 256.5,-472.1"/>
<text text-anchor="middle" x="307.5" y="-341.8" font-family="Times New Roman,serif" font-size="14.00">yes</text>
</g>
<!-- buildtoken -->
<g id="node8" class="node">
<title>buildtoken</title>
<path fill="none" stroke="black" d="M337,-36C337,-36 271,-36 271,-36 265,-36 259,-30 259,-24 259,-24 259,-12 259,-12 259,-6 265,0 271,0 271,0 337,0 337,0 343,0 349,-6 349,-12 349,-12 349,-24 349,-24 349,-30 343,-36 337,-36"/>
<text text-anchor="middle" x="304" y="-14.3" font-family="Times New Roman,serif" font-size="14.00">Build a token</text>
</g>
<!-- whitespace&#45;&gt;buildtoken -->
<g id="edge7" class="edge">
<title>whitespace&#45;&gt;buildtoken</title>
<path fill="none" stroke="black" d="M304,-86.69C304,-73.86 304,-59.72 304,-47.69"/>
<polygon fill="black" stroke="black" points="307.5,-48.01 304,-38.01 300.5,-48.01 307.5,-48.01"/>
<text text-anchor="middle" x="311.5" y="-57.8" font-family="Times New Roman,serif" font-size="14.00">no</text>
</g>
</g>
</svg>
