<?xml version="1.0"?>
<!-- Created by MetaPost 2.00 on 2021.02.27:1101 -->
<svg version="1.1" xmlns="http://www.w3.org/2000/svg" xmlns:xlink="http://www.w3.org/1999/xlink"  viewBox="0 0 258.417694 117.765030">
<!-- Original BoundingBox: -78.840057 -105.559860 179.577637 12.205170 -->
  <defs>
    <g transform="scale(0.009963,0.009963)" id="GLYPHcmr10_67">
      <path style="fill-rule: evenodd;" d="M56.000000 -342.000000C56.000000 -135.000000,218.000000 22.000000,404.000000 22.000000C567.000000 22.000000,665.000000 -117.000000,665.000000 -233.000000C665.000000 -243.000000,665.000000 -250.000000,652.000000 -250.000000C641.000000 -250.000000,641.000000 -244.000000,640.000000 -234.000000C632.000000 -91.000000,525.000000 -9.000000,416.000000 -9.000000C355.000000 -9.000000,159.000000 -43.000000,159.000000 -341.000000C159.000000 -640.000000,354.000000 -674.000000,415.000000 -674.000000C524.000000 -674.000000,613.000000 -583.000000,633.000000 -437.000000C635.000000 -423.000000,635.000000 -420.000000,649.000000 -420.000000C665.000000 -420.000000,665.000000 -423.000000,665.000000 -444.000000L665.000000 -681.000000C665.000000 -698.000000,665.000000 -705.000000,654.000000 -705.000000C650.000000 -705.000000,646.000000 -705.000000,638.000000 -693.000000L588.000000 -619.000000C551.000000 -655.000000,500.000000 -705.000000,404.000000 -705.000000C217.000000 -705.000000,56.000000 -546.000000,56.000000 -342.000000"></path>
    </g>
    <g transform="scale(0.009963,0.009963)" id="GLYPHcmr10_79">
      <path style="fill-rule: evenodd;" d="M721.000000 -339.000000C721.000000 -543.000000,570.000000 -705.000000,388.000000 -705.000000C209.000000 -705.000000,56.000000 -545.000000,56.000000 -339.000000C56.000000 -134.000000,210.000000 22.000000,388.000000 22.000000C570.000000 22.000000,721.000000 -137.000000,721.000000 -339.000000M389.000000 -4.000000C293.000000 -4.000000,159.000000 -92.000000,159.000000 -353.000000C159.000000 -612.000000,305.000000 -680.000000,388.000000 -680.000000C475.000000 -680.000000,618.000000 -609.000000,618.000000 -353.000000C618.000000 -88.000000,481.000000 -4.000000,389.000000 -4.000000"></path>
    </g>
    <g transform="scale(0.009963,0.009963)" id="GLYPHcmr10_84">
      <path style="fill-rule: evenodd;" d="M666.000000 -677.000000L55.000000 -677.000000L36.000000 -452.000000L61.000000 -452.000000C75.000000 -613.000000,90.000000 -646.000000,241.000000 -646.000000C259.000000 -646.000000,285.000000 -646.000000,295.000000 -644.000000C316.000000 -640.000000,316.000000 -629.000000,316.000000 -606.000000L316.000000 -79.000000C316.000000 -45.000000,316.000000 -31.000000,211.000000 -31.000000L171.000000 -31.000000L171.000000 -0.000000C212.000000 -3.000000,314.000000 -3.000000,360.000000 -3.000000C406.000000 -3.000000,509.000000 -3.000000,550.000000 -0.000000L550.000000 -31.000000L510.000000 -31.000000C405.000000 -31.000000,405.000000 -45.000000,405.000000 -79.000000L405.000000 -606.000000C405.000000 -626.000000,405.000000 -640.000000,423.000000 -644.000000C434.000000 -646.000000,461.000000 -646.000000,480.000000 -646.000000C631.000000 -646.000000,646.000000 -613.000000,660.000000 -452.000000L685.000000 -452.000000"></path>
    </g>
    <g transform="scale(0.009963,0.009963)" id="GLYPHcmr10_97">
      <path style="fill-rule: evenodd;" d="M333.000000 -76.000000C337.000000 -36.000000,364.000000 6.000000,411.000000 6.000000C432.000000 6.000000,493.000000 -8.000000,493.000000 -89.000000L493.000000 -145.000000L468.000000 -145.000000L468.000000 -89.000000C468.000000 -31.000000,443.000000 -25.000000,432.000000 -25.000000C399.000000 -25.000000,395.000000 -70.000000,395.000000 -75.000000L395.000000 -275.000000C395.000000 -317.000000,395.000000 -356.000000,359.000000 -393.000000C320.000000 -432.000000,270.000000 -448.000000,222.000000 -448.000000C140.000000 -448.000000,71.000000 -401.000000,71.000000 -335.000000C71.000000 -305.000000,91.000000 -288.000000,117.000000 -288.000000C145.000000 -288.000000,163.000000 -308.000000,163.000000 -334.000000C163.000000 -346.000000,158.000000 -379.000000,112.000000 -380.000000C139.000000 -415.000000,188.000000 -426.000000,220.000000 -426.000000C269.000000 -426.000000,326.000000 -387.000000,326.000000 -298.000000L326.000000 -261.000000C275.000000 -258.000000,205.000000 -255.000000,142.000000 -225.000000C67.000000 -191.000000,42.000000 -139.000000,42.000000 -95.000000C42.000000 -14.000000,139.000000 11.000000,202.000000 11.000000C268.000000 11.000000,314.000000 -29.000000,333.000000 -76.000000M326.000000 -240.000000L326.000000 -140.000000C326.000000 -45.000000,254.000000 -11.000000,209.000000 -11.000000C160.000000 -11.000000,119.000000 -46.000000,119.000000 -96.000000C119.000000 -151.000000,161.000000 -234.000000,326.000000 -240.000000"></path>
    </g>
    <g transform="scale(0.009963,0.009963)" id="GLYPHcmr10_98">
      <path style="fill-rule: evenodd;" d="M172.000000 -377.000000L172.000000 -694.000000L28.000000 -683.000000L28.000000 -652.000000C98.000000 -652.000000,106.000000 -645.000000,106.000000 -596.000000L106.000000 -0.000000L131.000000 -0.000000C132.000000 -1.000000,140.000000 -15.000000,167.000000 -62.000000C182.000000 -39.000000,224.000000 11.000000,298.000000 11.000000C417.000000 11.000000,521.000000 -87.000000,521.000000 -216.000000C521.000000 -343.000000,423.000000 -442.000000,309.000000 -442.000000C231.000000 -442.000000,188.000000 -395.000000,172.000000 -377.000000M175.000000 -114.000000L175.000000 -320.000000C175.000000 -339.000000,175.000000 -340.000000,186.000000 -356.000000C225.000000 -412.000000,280.000000 -420.000000,304.000000 -420.000000C349.000000 -420.000000,385.000000 -394.000000,409.000000 -356.000000C435.000000 -315.000000,438.000000 -258.000000,438.000000 -217.000000C438.000000 -180.000000,436.000000 -120.000000,407.000000 -75.000000C386.000000 -44.000000,348.000000 -11.000000,294.000000 -11.000000C249.000000 -11.000000,213.000000 -35.000000,189.000000 -72.000000C175.000000 -93.000000,175.000000 -96.000000,175.000000 -114.000000"></path>
    </g>
    <g transform="scale(0.009963,0.009963)" id="GLYPHcmr10_99">
      <path style="fill-rule: evenodd;" d="M117.000000 -218.000000C117.000000 -381.000000,199.000000 -423.000000,252.000000 -423.000000C261.000000 -423.000000,324.000000 -422.000000,359.000000 -386.000000C318.000000 -383.000000,312.000000 -353.000000,312.000000 -340.000000C312.000000 -314.000000,330.000000 -294.000000,358.000000 -294.000000C384.000000 -294.000000,404.000000 -311.000000,404.000000 -341.000000C404.000000 -409.000000,328.000000 -448.000000,251.000000 -448.000000C126.000000 -448.000000,34.000000 -340.000000,34.000000 -216.000000C34.000000 -88.000000,133.000000 11.000000,249.000000 11.000000C383.000000 11.000000,415.000000 -109.000000,415.000000 -119.000000C415.000000 -129.000000,405.000000 -129.000000,402.000000 -129.000000C393.000000 -129.000000,391.000000 -125.000000,389.000000 -119.000000C360.000000 -26.000000,295.000000 -14.000000,258.000000 -14.000000C205.000000 -14.000000,117.000000 -57.000000,117.000000 -218.000000"></path>
    </g>
    <g transform="scale(0.009963,0.009963)" id="GLYPHcmr10_100">
      <path style="fill-rule: evenodd;" d="M380.000000 -55.000000L380.000000 11.000000L527.000000 -0.000000L527.000000 -31.000000C457.000000 -31.000000,449.000000 -38.000000,449.000000 -87.000000L449.000000 -694.000000L305.000000 -683.000000L305.000000 -652.000000C375.000000 -652.000000,383.000000 -645.000000,383.000000 -596.000000L383.000000 -380.000000C354.000000 -416.000000,311.000000 -442.000000,257.000000 -442.000000C139.000000 -442.000000,34.000000 -344.000000,34.000000 -215.000000C34.000000 -88.000000,132.000000 11.000000,246.000000 11.000000C310.000000 11.000000,355.000000 -23.000000,380.000000 -55.000000M380.000000 -323.000000L380.000000 -118.000000C380.000000 -100.000000,380.000000 -98.000000,369.000000 -81.000000C339.000000 -33.000000,294.000000 -11.000000,251.000000 -11.000000C206.000000 -11.000000,170.000000 -37.000000,146.000000 -75.000000C120.000000 -116.000000,117.000000 -173.000000,117.000000 -214.000000C117.000000 -251.000000,119.000000 -311.000000,148.000000 -356.000000C169.000000 -387.000000,207.000000 -420.000000,261.000000 -420.000000C296.000000 -420.000000,338.000000 -405.000000,369.000000 -360.000000C380.000000 -343.000000,380.000000 -341.000000,380.000000 -323.000000"></path>
    </g>
    <g transform="scale(0.009963,0.009963)" id="GLYPHcmr10_101">
      <path style="fill-rule: evenodd;" d="M112.000000 -252.000000C118.000000 -401.000000,202.000000 -426.000000,236.000000 -426.000000C339.000000 -426.000000,349.000000 -291.000000,349.000000 -252.000000M111.000000 -231.000000L390.000000 -231.000000C412.000000 -231.000000,415.000000 -231.000000,415.000000 -252.000000C415.000000 -351.000000,361.000000 -448.000000,236.000000 -448.000000C120.000000 -448.000000,28.000000 -345.000000,28.000000 -220.000000C28.000000 -86.000000,133.000000 11.000000,248.000000 11.000000C370.000000 11.000000,415.000000 -100.000000,415.000000 -119.000000C415.000000 -129.000000,407.000000 -131.000000,402.000000 -131.000000C393.000000 -131.000000,391.000000 -125.000000,389.000000 -117.000000C354.000000 -14.000000,264.000000 -14.000000,254.000000 -14.000000C204.000000 -14.000000,164.000000 -44.000000,141.000000 -81.000000C111.000000 -129.000000,111.000000 -195.000000,111.000000 -231.000000"></path>
    </g>
    <g transform="scale(0.009963,0.009963)" id="GLYPHcmr10_104">
      <path style="fill-rule: evenodd;" d="M110.000000 -76.000000C110.000000 -31.000000,99.000000 -31.000000,32.000000 -31.000000L32.000000 -0.000000C67.000000 -1.000000,118.000000 -3.000000,145.000000 -3.000000C171.000000 -3.000000,223.000000 -1.000000,257.000000 -0.000000L257.000000 -31.000000C190.000000 -31.000000,179.000000 -31.000000,179.000000 -76.000000L179.000000 -260.000000C179.000000 -364.000000,250.000000 -420.000000,314.000000 -420.000000C377.000000 -420.000000,388.000000 -366.000000,388.000000 -309.000000L388.000000 -76.000000C388.000000 -31.000000,377.000000 -31.000000,310.000000 -31.000000L310.000000 -0.000000C345.000000 -1.000000,396.000000 -3.000000,423.000000 -3.000000C449.000000 -3.000000,501.000000 -1.000000,535.000000 -0.000000L535.000000 -31.000000C483.000000 -31.000000,458.000000 -31.000000,457.000000 -61.000000L457.000000 -252.000000C457.000000 -338.000000,457.000000 -369.000000,426.000000 -405.000000C412.000000 -422.000000,379.000000 -442.000000,321.000000 -442.000000C237.000000 -442.000000,193.000000 -382.000000,176.000000 -344.000000L176.000000 -694.000000L32.000000 -683.000000L32.000000 -652.000000C102.000000 -652.000000,110.000000 -645.000000,110.000000 -596.000000"></path>
    </g>
    <g transform="scale(0.009963,0.009963)" id="GLYPHcmr10_106">
      <path style="fill-rule: evenodd;" d="M210.000000 -442.000000L58.000000 -431.000000L58.000000 -400.000000C135.000000 -400.000000,144.000000 -393.000000,144.000000 -344.000000L144.000000 52.000000C144.000000 97.000000,135.000000 183.000000,71.000000 183.000000C66.000000 183.000000,43.000000 183.000000,17.000000 170.000000C32.000000 166.000000,52.000000 152.000000,52.000000 125.000000C52.000000 99.000000,34.000000 79.000000,6.000000 79.000000C-22.000000 79.000000,-40.000000 99.000000,-40.000000 125.000000C-40.000000 177.000000,16.000000 205.000000,73.000000 205.000000C148.000000 205.000000,210.000000 141.000000,210.000000 50.000000M210.000000 -616.000000C210.000000 -645.000000,186.000000 -669.000000,157.000000 -669.000000C128.000000 -669.000000,104.000000 -645.000000,104.000000 -616.000000C104.000000 -587.000000,128.000000 -563.000000,157.000000 -563.000000C186.000000 -563.000000,210.000000 -587.000000,210.000000 -616.000000"></path>
    </g>
    <g transform="scale(0.009963,0.009963)" id="GLYPHcmr10_110">
      <path style="fill-rule: evenodd;" d="M110.000000 -344.000000L110.000000 -76.000000C110.000000 -31.000000,99.000000 -31.000000,32.000000 -31.000000L32.000000 -0.000000C67.000000 -1.000000,118.000000 -3.000000,145.000000 -3.000000C171.000000 -3.000000,223.000000 -1.000000,257.000000 -0.000000L257.000000 -31.000000C190.000000 -31.000000,179.000000 -31.000000,179.000000 -76.000000L179.000000 -260.000000C179.000000 -364.000000,250.000000 -420.000000,314.000000 -420.000000C377.000000 -420.000000,388.000000 -366.000000,388.000000 -309.000000L388.000000 -76.000000C388.000000 -31.000000,377.000000 -31.000000,310.000000 -31.000000L310.000000 -0.000000C345.000000 -1.000000,396.000000 -3.000000,423.000000 -3.000000C449.000000 -3.000000,501.000000 -1.000000,535.000000 -0.000000L535.000000 -31.000000C483.000000 -31.000000,458.000000 -31.000000,457.000000 -61.000000L457.000000 -252.000000C457.000000 -338.000000,457.000000 -369.000000,426.000000 -405.000000C412.000000 -422.000000,379.000000 -442.000000,321.000000 -442.000000C248.000000 -442.000000,201.000000 -399.000000,173.000000 -337.000000L173.000000 -442.000000L32.000000 -431.000000L32.000000 -400.000000C102.000000 -400.000000,110.000000 -393.000000,110.000000 -344.000000"></path>
    </g>
    <g transform="scale(0.009963,0.009963)" id="GLYPHcmr10_111">
      <path style="fill-rule: evenodd;" d="M471.000000 -214.000000C471.000000 -342.000000,371.000000 -448.000000,250.000000 -448.000000C125.000000 -448.000000,28.000000 -339.000000,28.000000 -214.000000C28.000000 -85.000000,132.000000 11.000000,249.000000 11.000000C370.000000 11.000000,471.000000 -87.000000,471.000000 -214.000000M250.000000 -14.000000C207.000000 -14.000000,163.000000 -35.000000,136.000000 -81.000000C111.000000 -125.000000,111.000000 -186.000000,111.000000 -222.000000C111.000000 -261.000000,111.000000 -315.000000,135.000000 -359.000000C162.000000 -405.000000,209.000000 -426.000000,249.000000 -426.000000C293.000000 -426.000000,336.000000 -404.000000,362.000000 -361.000000C388.000000 -318.000000,388.000000 -260.000000,388.000000 -222.000000C388.000000 -186.000000,388.000000 -132.000000,366.000000 -88.000000C344.000000 -43.000000,300.000000 -14.000000,250.000000 -14.000000"></path>
    </g>
    <g transform="scale(0.009963,0.009963)" id="GLYPHcmr10_112">
      <path style="fill-rule: evenodd;" d="M172.000000 -376.000000L172.000000 -442.000000L28.000000 -431.000000L28.000000 -400.000000C99.000000 -400.000000,106.000000 -394.000000,106.000000 -350.000000L106.000000 118.000000C106.000000 163.000000,95.000000 163.000000,28.000000 163.000000L28.000000 194.000000C62.000000 193.000000,114.000000 191.000000,140.000000 191.000000C167.000000 191.000000,218.000000 193.000000,253.000000 194.000000L253.000000 163.000000C186.000000 163.000000,175.000000 163.000000,175.000000 118.000000L175.000000 -50.000000L175.000000 -59.000000C180.000000 -43.000000,222.000000 11.000000,298.000000 11.000000C417.000000 11.000000,521.000000 -87.000000,521.000000 -216.000000C521.000000 -343.000000,424.000000 -442.000000,312.000000 -442.000000C234.000000 -442.000000,192.000000 -398.000000,172.000000 -376.000000M175.000000 -114.000000L175.000000 -337.000000C204.000000 -388.000000,253.000000 -417.000000,304.000000 -417.000000C377.000000 -417.000000,438.000000 -329.000000,438.000000 -216.000000C438.000000 -95.000000,368.000000 -11.000000,294.000000 -11.000000C254.000000 -11.000000,216.000000 -31.000000,189.000000 -72.000000C175.000000 -93.000000,175.000000 -94.000000,175.000000 -114.000000"></path>
    </g>
    <g transform="scale(0.009963,0.009963)" id="GLYPHcmr10_114">
      <path style="fill-rule: evenodd;" d="M167.000000 -332.000000L167.000000 -442.000000L28.000000 -431.000000L28.000000 -400.000000C98.000000 -400.000000,106.000000 -393.000000,106.000000 -344.000000L106.000000 -76.000000C106.000000 -31.000000,95.000000 -31.000000,28.000000 -31.000000L28.000000 -0.000000C67.000000 -1.000000,114.000000 -3.000000,142.000000 -3.000000C182.000000 -3.000000,229.000000 -3.000000,269.000000 -0.000000L269.000000 -31.000000L248.000000 -31.000000C174.000000 -31.000000,172.000000 -42.000000,172.000000 -78.000000L172.000000 -232.000000C172.000000 -331.000000,214.000000 -420.000000,290.000000 -420.000000C297.000000 -420.000000,299.000000 -420.000000,301.000000 -419.000000C298.000000 -418.000000,278.000000 -406.000000,278.000000 -380.000000C278.000000 -352.000000,299.000000 -337.000000,321.000000 -337.000000C339.000000 -337.000000,364.000000 -349.000000,364.000000 -381.000000C364.000000 -413.000000,333.000000 -442.000000,290.000000 -442.000000C217.000000 -442.000000,181.000000 -375.000000,167.000000 -332.000000"></path>
    </g>
    <g transform="scale(0.009963,0.009963)" id="GLYPHcmr10_115">
      <path style="fill-rule: evenodd;" d="M208.000000 -194.000000C230.000000 -190.000000,312.000000 -174.000000,312.000000 -102.000000C312.000000 -51.000000,277.000000 -11.000000,199.000000 -11.000000C115.000000 -11.000000,79.000000 -68.000000,60.000000 -153.000000C57.000000 -166.000000,56.000000 -170.000000,46.000000 -170.000000C33.000000 -170.000000,33.000000 -163.000000,33.000000 -145.000000L33.000000 -13.000000C33.000000 4.000000,33.000000 11.000000,44.000000 11.000000C49.000000 11.000000,50.000000 10.000000,69.000000 -9.000000C71.000000 -11.000000,71.000000 -13.000000,89.000000 -32.000000C133.000000 10.000000,178.000000 11.000000,199.000000 11.000000C314.000000 11.000000,360.000000 -56.000000,360.000000 -128.000000C360.000000 -181.000000,330.000000 -211.000000,318.000000 -223.000000C285.000000 -255.000000,246.000000 -263.000000,204.000000 -271.000000C148.000000 -282.000000,81.000000 -295.000000,81.000000 -353.000000C81.000000 -388.000000,107.000000 -429.000000,193.000000 -429.000000C303.000000 -429.000000,308.000000 -339.000000,310.000000 -308.000000C311.000000 -299.000000,320.000000 -299.000000,322.000000 -299.000000C335.000000 -299.000000,335.000000 -304.000000,335.000000 -323.000000L335.000000 -424.000000C335.000000 -441.000000,335.000000 -448.000000,324.000000 -448.000000C319.000000 -448.000000,317.000000 -448.000000,304.000000 -436.000000C301.000000 -432.000000,291.000000 -423.000000,287.000000 -420.000000C249.000000 -448.000000,208.000000 -448.000000,193.000000 -448.000000C71.000000 -448.000000,33.000000 -381.000000,33.000000 -325.000000C33.000000 -290.000000,49.000000 -262.000000,76.000000 -240.000000C108.000000 -214.000000,136.000000 -208.000000,208.000000 -194.000000"></path>
    </g>
    <g transform="scale(0.009963,0.009963)" id="GLYPHcmr10_116">
      <path style="fill-rule: evenodd;" d="M173.000000 -400.000000L316.000000 -400.000000L316.000000 -431.000000L173.000000 -431.000000L173.000000 -615.000000L148.000000 -615.000000C147.000000 -533.000000,117.000000 -426.000000,19.000000 -422.000000L19.000000 -400.000000L104.000000 -400.000000L104.000000 -124.000000C104.000000 -1.000000,197.000000 11.000000,233.000000 11.000000C304.000000 11.000000,332.000000 -60.000000,332.000000 -124.000000L332.000000 -181.000000L307.000000 -181.000000L307.000000 -126.000000C307.000000 -52.000000,277.000000 -14.000000,240.000000 -14.000000C173.000000 -14.000000,173.000000 -105.000000,173.000000 -122.000000"></path>
    </g>
    <g transform="scale(0.009963,0.009963)" id="GLYPHcmr10_117">
      <path style="fill-rule: evenodd;" d="M391.000000 -79.000000L391.000000 11.000000L535.000000 -0.000000L535.000000 -31.000000C465.000000 -31.000000,457.000000 -38.000000,457.000000 -87.000000L457.000000 -442.000000L310.000000 -431.000000L310.000000 -400.000000C380.000000 -400.000000,388.000000 -393.000000,388.000000 -344.000000L388.000000 -166.000000C388.000000 -79.000000,340.000000 -11.000000,267.000000 -11.000000C183.000000 -11.000000,179.000000 -58.000000,179.000000 -110.000000L179.000000 -442.000000L32.000000 -431.000000L32.000000 -400.000000C110.000000 -400.000000,110.000000 -397.000000,110.000000 -308.000000L110.000000 -158.000000C110.000000 -80.000000,110.000000 11.000000,262.000000 11.000000C318.000000 11.000000,362.000000 -17.000000,391.000000 -79.000000"></path>
    </g>
    <g transform="scale(0.009963,0.009963)" id="GLYPHcmr10_121">
      <path style="fill-rule: evenodd;" d="M415.000000 -336.000000C441.000000 -399.000000,492.000000 -400.000000,508.000000 -400.000000L508.000000 -431.000000C485.000000 -429.000000,456.000000 -428.000000,433.000000 -428.000000C415.000000 -428.000000,368.000000 -430.000000,346.000000 -431.000000L346.000000 -400.000000C377.000000 -399.000000,393.000000 -382.000000,393.000000 -357.000000C393.000000 -347.000000,392.000000 -345.000000,387.000000 -333.000000L286.000000 -87.000000L175.000000 -356.000000C171.000000 -366.000000,169.000000 -370.000000,169.000000 -374.000000C169.000000 -400.000000,206.000000 -400.000000,225.000000 -400.000000L225.000000 -431.000000C199.000000 -430.000000,133.000000 -428.000000,116.000000 -428.000000C89.000000 -428.000000,49.000000 -429.000000,19.000000 -431.000000L19.000000 -400.000000C67.000000 -400.000000,86.000000 -400.000000,100.000000 -365.000000L250.000000 -0.000000C245.000000 13.000000,231.000000 46.000000,225.000000 59.000000C203.000000 114.000000,175.000000 183.000000,111.000000 183.000000C106.000000 183.000000,83.000000 183.000000,64.000000 165.000000C95.000000 161.000000,103.000000 139.000000,103.000000 123.000000C103.000000 97.000000,84.000000 81.000000,61.000000 81.000000C41.000000 81.000000,19.000000 94.000000,19.000000 124.000000C19.000000 169.000000,61.000000 205.000000,111.000000 205.000000C174.000000 205.000000,215.000000 148.000000,239.000000 91.000000"></path>
    </g>
    <g transform="scale(0.009963,0.009963)" id="GLYPHcmsy10_102">
      <path style="fill-rule: evenodd;" d="M283.000000 -617.000000C283.000000 -657.000000,309.000000 -721.000000,418.000000 -728.000000C423.000000 -729.000000,427.000000 -733.000000,427.000000 -739.000000C427.000000 -750.000000,419.000000 -750.000000,408.000000 -750.000000C308.000000 -750.000000,217.000000 -699.000000,216.000000 -625.000000L216.000000 -397.000000C216.000000 -358.000000,216.000000 -326.000000,176.000000 -293.000000C141.000000 -264.000000,103.000000 -262.000000,81.000000 -261.000000C76.000000 -260.000000,72.000000 -256.000000,72.000000 -250.000000C72.000000 -240.000000,78.000000 -240.000000,88.000000 -239.000000C154.000000 -235.000000,202.000000 -199.000000,213.000000 -150.000000C216.000000 -139.000000,216.000000 -137.000000,216.000000 -101.000000L216.000000 97.000000C216.000000 139.000000,216.000000 171.000000,264.000000 209.000000C303.000000 239.000000,369.000000 250.000000,408.000000 250.000000C419.000000 250.000000,427.000000 250.000000,427.000000 239.000000C427.000000 229.000000,421.000000 229.000000,411.000000 228.000000C348.000000 224.000000,299.000000 192.000000,286.000000 141.000000C283.000000 132.000000,283.000000 130.000000,283.000000 94.000000L283.000000 -116.000000C283.000000 -162.000000,275.000000 -179.000000,243.000000 -211.000000C222.000000 -232.000000,193.000000 -242.000000,165.000000 -250.000000C247.000000 -273.000000,283.000000 -319.000000,283.000000 -377.000000"></path>
    </g>
  </defs>
  <g transform="matrix(0.000000,-1.500000,5.625000,0.000000,121.897827 22.471939)" style="fill: rgb(0.000000%,0.000000%,0.000000%);">
    <use xlink:href="#GLYPHcmsy10_102"></use>
  </g>
  <g transform="matrix(0.000000,1.500000,-5.625000,0.000000,93.878052 61.303894)" style="fill: rgb(0.000000%,0.000000%,0.000000%);">
    <use xlink:href="#GLYPHcmsy10_102"></use>
  </g>
  <g transform="matrix(0.000000,-1.500000,5.625000,0.000000,121.897827 94.202957)" style="fill: rgb(0.000000%,0.000000%,0.000000%);">
    <use xlink:href="#GLYPHcmsy10_102"></use>
  </g>
  <g transform="matrix(0.000000,-1.500000,5.625000,0.000000,181.673706 94.202957)" style="fill: rgb(0.000000%,0.000000%,0.000000%);">
    <use xlink:href="#GLYPHcmsy10_102"></use>
  </g>
  <g transform="matrix(0.000000,-1.500000,5.625000,0.000000,241.449585 94.202957)" style="fill: rgb(0.000000%,0.000000%,0.000000%);">
    <use xlink:href="#GLYPHcmsy10_102"></use>
  </g>
  <g transform="translate(81.874329 39.851257)" style="fill: rgb(0.000000%,0.000000%,0.000000%);">
    <use xlink:href="#GLYPHcmr10_79"></use>
    <use xlink:href="#GLYPHcmr10_98" x="7.777925"></use>
  </g>
  <g transform="translate(95.711334 39.851257)" style="fill: rgb(0.000000%,0.000000%,0.000000%);">
    <use xlink:href="#GLYPHcmr10_106"></use>
    <use xlink:href="#GLYPHcmr10_101" x="3.055621"></use>
    <use xlink:href="#GLYPHcmr10_99" x="7.500150"></use>
    <use xlink:href="#GLYPHcmr10_116" x="11.944679"></use>
    <use xlink:href="#GLYPHcmr10_84" x="15.833641"></use>
  </g>
  <g transform="translate(118.404022 39.851257)" style="fill: rgb(0.000000%,0.000000%,0.000000%);">
    <use xlink:href="#GLYPHcmr10_121"></use>
    <use xlink:href="#GLYPHcmr10_112" x="5.277886"></use>
  </g>
  <g transform="translate(129.473724 39.851257)" style="fill: rgb(0.000000%,0.000000%,0.000000%);">
    <use xlink:href="#GLYPHcmr10_101"></use>
  </g>
  <g transform="translate(98.340393 51.015732)" style="fill: rgb(0.000000%,0.000000%,0.000000%);">
    <use xlink:href="#GLYPHcmr10_116"></use>
  </g>
  <g transform="translate(101.937988 51.015732)" style="fill: rgb(0.000000%,0.000000%,0.000000%);">
    <use xlink:href="#GLYPHcmr10_121"></use>
    <use xlink:href="#GLYPHcmr10_112" x="5.277886"></use>
  </g>
  <g transform="translate(113.007690 51.015732)" style="fill: rgb(0.000000%,0.000000%,0.000000%);">
    <use xlink:href="#GLYPHcmr10_101"></use>
  </g>
  <g transform="translate(93.082336 105.604691)" style="fill: rgb(0.000000%,0.000000%,0.000000%);">
    <use xlink:href="#GLYPHcmr10_79"></use>
    <use xlink:href="#GLYPHcmr10_98" x="7.777925"></use>
  </g>
  <g transform="translate(106.919342 105.604691)" style="fill: rgb(0.000000%,0.000000%,0.000000%);">
    <use xlink:href="#GLYPHcmr10_106"></use>
    <use xlink:href="#GLYPHcmr10_101" x="3.055621"></use>
    <use xlink:href="#GLYPHcmr10_99" x="7.500150"></use>
    <use xlink:href="#GLYPHcmr10_116" x="11.944679"></use>
  </g>
  <g transform="translate(93.483582 117.559860)" style="fill: rgb(0.000000%,0.000000%,0.000000%);">
    <use xlink:href="#GLYPHcmr10_104"></use>
    <use xlink:href="#GLYPHcmr10_101" x="5.555661"></use>
    <use xlink:href="#GLYPHcmr10_97" x="10.000190"></use>
    <use xlink:href="#GLYPHcmr10_100" x="15.000284"></use>
    <use xlink:href="#GLYPHcmr10_101" x="20.555945"></use>
    <use xlink:href="#GLYPHcmr10_114" x="25.000474"></use>
  </g>
  <g transform="translate(161.008209 102.975693)" style="fill: rgb(0.000000%,0.000000%,0.000000%);">
    <use xlink:href="#GLYPHcmr10_99"></use>
    <use xlink:href="#GLYPHcmr10_97" x="4.444529"></use>
    <use xlink:href="#GLYPHcmr10_114" x="9.444624"></use>
  </g>
  <g transform="translate(220.507339 105.604691)" style="fill: rgb(0.000000%,0.000000%,0.000000%);">
    <use xlink:href="#GLYPHcmr10_99"></use>
    <use xlink:href="#GLYPHcmr10_100" x="4.444529"></use>
    <use xlink:href="#GLYPHcmr10_114" x="10.000190"></use>
  </g>
  <path d="M78.000000 13.500000L78.000000 70.775848" style="stroke:rgb(0.000000%,0.000000%,0.000000%); stroke-width: 0.500000;stroke-linecap: round;stroke-dasharray: 3.000000 3.000000 ;stroke-linejoin: round;stroke-miterlimit: 10.000000;fill: none;"></path>
  <path d="M137.775879 13.500000L137.775879 70.775848" style="stroke:rgb(0.000000%,0.000000%,0.000000%); stroke-width: 0.500000;stroke-linecap: round;stroke-dasharray: 3.000000 3.000000 ;stroke-linejoin: round;stroke-miterlimit: 10.000000;fill: none;"></path>
  <g transform="translate(2.480850 7.962814)" style="fill: rgb(0.000000%,0.000000%,0.000000%);">
    <use xlink:href="#GLYPHcmr10_115"></use>
    <use xlink:href="#GLYPHcmr10_116" x="3.944515"></use>
    <use xlink:href="#GLYPHcmr10_114" x="7.833477"></use>
    <use xlink:href="#GLYPHcmr10_117" x="11.750224"></use>
    <use xlink:href="#GLYPHcmr10_99" x="17.305884"></use>
    <use xlink:href="#GLYPHcmr10_116" x="21.750413"></use>
  </g>
  <g transform="translate(31.344849 7.962814)" style="fill: rgb(0.000000%,0.000000%,0.000000%);">
    <use xlink:href="#GLYPHcmr10_79"></use>
    <use xlink:href="#GLYPHcmr10_98" x="7.777925"></use>
  </g>
  <g transform="translate(45.181839 7.962814)" style="fill: rgb(0.000000%,0.000000%,0.000000%);">
    <use xlink:href="#GLYPHcmr10_106"></use>
    <use xlink:href="#GLYPHcmr10_101" x="3.055621"></use>
    <use xlink:href="#GLYPHcmr10_99" x="7.500150"></use>
    <use xlink:href="#GLYPHcmr10_116" x="11.944679"></use>
  </g>
  <g transform="translate(10.450943 81.631027)" style="fill: rgb(0.000000%,0.000000%,0.000000%);">
    <use xlink:href="#GLYPHcmr10_115"></use>
    <use xlink:href="#GLYPHcmr10_116" x="3.944515"></use>
    <use xlink:href="#GLYPHcmr10_114" x="7.833477"></use>
    <use xlink:href="#GLYPHcmr10_117" x="11.750224"></use>
    <use xlink:href="#GLYPHcmr10_99" x="17.305884"></use>
    <use xlink:href="#GLYPHcmr10_116" x="21.750413"></use>
  </g>
  <g transform="translate(39.314941 81.631027)" style="fill: rgb(0.000000%,0.000000%,0.000000%);">
    <use xlink:href="#GLYPHcmr10_67"></use>
    <use xlink:href="#GLYPHcmr10_111" x="7.222359"></use>
    <use xlink:href="#GLYPHcmr10_110" x="12.222454"></use>
    <use xlink:href="#GLYPHcmr10_115" x="17.778115"></use>
  </g>
  <path d="M92.943970 12.000000L92.943970 0.044830" style="stroke:rgb(50.000000%,50.000000%,50.000000%); stroke-width: 0.500000;stroke-linecap: round;stroke-linejoin: round;stroke-miterlimit: 10.000000;fill: none;"></path>
  <path d="M107.887939 12.000000L107.887939 0.044830" style="stroke:rgb(50.000000%,50.000000%,50.000000%); stroke-width: 0.500000;stroke-linecap: round;stroke-linejoin: round;stroke-miterlimit: 10.000000;fill: none;"></path>
  <path d="M122.831909 12.000000L122.831909 0.044830" style="stroke:rgb(50.000000%,50.000000%,50.000000%); stroke-width: 0.500000;stroke-linecap: round;stroke-linejoin: round;stroke-miterlimit: 10.000000;fill: none;"></path>
  <path d="M92.943970 83.731018L92.943970 71.775848" style="stroke:rgb(50.000000%,50.000000%,50.000000%); stroke-width: 0.500000;stroke-linecap: round;stroke-linejoin: round;stroke-miterlimit: 10.000000;fill: none;"></path>
  <path d="M107.887939 83.731018L107.887939 71.775848" style="stroke:rgb(50.000000%,50.000000%,50.000000%); stroke-width: 0.500000;stroke-linecap: round;stroke-linejoin: round;stroke-miterlimit: 10.000000;fill: none;"></path>
  <path d="M122.831909 83.731018L122.831909 71.775848" style="stroke:rgb(50.000000%,50.000000%,50.000000%); stroke-width: 0.500000;stroke-linecap: round;stroke-linejoin: round;stroke-miterlimit: 10.000000;fill: none;"></path>
  <path d="M137.775879 83.731018L137.775879 71.775848" style="stroke:rgb(0.000000%,0.000000%,0.000000%); stroke-width: 0.500000;stroke-linecap: round;stroke-linejoin: round;stroke-miterlimit: 10.000000;fill: none;"></path>
  <path d="M152.719849 83.731018L152.719849 71.775848" style="stroke:rgb(50.000000%,50.000000%,50.000000%); stroke-width: 0.500000;stroke-linecap: round;stroke-linejoin: round;stroke-miterlimit: 10.000000;fill: none;"></path>
  <path d="M167.663818 83.731018L167.663818 71.775848" style="stroke:rgb(50.000000%,50.000000%,50.000000%); stroke-width: 0.500000;stroke-linecap: round;stroke-linejoin: round;stroke-miterlimit: 10.000000;fill: none;"></path>
  <path d="M182.607788 83.731018L182.607788 71.775848" style="stroke:rgb(50.000000%,50.000000%,50.000000%); stroke-width: 0.500000;stroke-linecap: round;stroke-linejoin: round;stroke-miterlimit: 10.000000;fill: none;"></path>
  <path d="M197.551758 83.731018L197.551758 71.775848" style="stroke:rgb(0.000000%,0.000000%,0.000000%); stroke-width: 0.500000;stroke-linecap: round;stroke-linejoin: round;stroke-miterlimit: 10.000000;fill: none;"></path>
  <path d="M212.495728 83.731018L212.495728 71.775848" style="stroke:rgb(50.000000%,50.000000%,50.000000%); stroke-width: 0.500000;stroke-linecap: round;stroke-linejoin: round;stroke-miterlimit: 10.000000;fill: none;"></path>
  <path d="M227.439697 83.731018L227.439697 71.775848" style="stroke:rgb(50.000000%,50.000000%,50.000000%); stroke-width: 0.500000;stroke-linecap: round;stroke-linejoin: round;stroke-miterlimit: 10.000000;fill: none;"></path>
  <path d="M242.383667 83.731018L242.383667 71.775848" style="stroke:rgb(50.000000%,50.000000%,50.000000%); stroke-width: 0.500000;stroke-linecap: round;stroke-linejoin: round;stroke-miterlimit: 10.000000;fill: none;"></path>
  <path d="M257.327637 83.731018L257.327637 71.775848" style="stroke:rgb(0.000000%,0.000000%,0.000000%); stroke-width: 0.500000;stroke-linecap: round;stroke-linejoin: round;stroke-miterlimit: 10.000000;fill: none;"></path>
  <path d="M78.000000 83.731018L257.327637 83.731018L257.327637 71.775848L78.000000 71.775848Z" style="stroke:rgb(0.000000%,0.000000%,0.000000%); stroke-width: 0.500000;stroke-linecap: round;stroke-linejoin: round;stroke-miterlimit: 10.000000;fill: none;"></path>
  <path d="M78.000000 12.000000L78.000000 0.044830L137.775879 0.044830L137.775879 12.000000Z" style="stroke:rgb(0.000000%,0.000000%,0.000000%); stroke-width: 0.500000;stroke-linecap: round;stroke-linejoin: round;stroke-miterlimit: 10.000000;fill: none;"></path>
</svg>
